<svg id="图层_1" data-name="图层 1" xmlns="http://www.w3.org/2000/svg" viewBox="0 0 2464 2464"><defs><style>.cls-1{fill:none;stroke:#000;stroke-linecap:round;stroke-linejoin:round;stroke-width:64px;}</style></defs><title>微言1</title><polygon class="cls-1" points="1341.35 968 1122.65 968 968 1122.65 968 1341.35 1122.65 1496 1341.35 1496 1496 1341.35 1496 1122.65 1341.35 968"/><polygon class="cls-1" points="2432 1232 2080.53 1583.47 2080.53 2080.53 1583.47 2080.53 1232 2432 880.53 2080.53 383.47 2080.53 383.47 1583.47 32 1232 383.47 880.53 383.47 383.47 880.53 383.47 1232 32 1583.47 383.47 2080.53 383.47 2080.53 880.53 2432 1232"/><path d="M1664,2757c-1.45,5.27-.67,10.11,2.62,13.77l-2.29,2.28c-5-4.26-11.29-4.21-16.38,0l-2.3-2.28c4.54-18-30.69-18.83-24.9,0l-2.29,2.28c-5.19-4.37-11.58-4.21-16.72.34l-2.6-2.62c4.54-5.15,4.7-11.54.32-16.72l2.28-2.3c22.83-.54,9-16.39-14.91-16.21-25,.18-36.14,19.08-14.57,16.21l2.29,2.3c-4.28,5-4.22,11.29,0,16.38l-2.62,2.62c-5.09-4.21-11.39-4.26-16.38,0l-2.3-2.28c5-17.76-29.86-18.16-24.89,0l-2.31,2.28c-5-4.26-11.29-4.21-16.38,0l-2.29-2.28a12.54,12.54,0,0,0-.32-16.72l2.29-2.3c18.63,5.8,18.16-29.16.32-24.57l-2.61-2.62c4.46-5.07,4.46-11.31,0-16.38l2.61-2.62c5.08,4.46,11.31,4.46,16.38,0l2.64,2.62c-1.43,12.25,14,18.74,15.72,5,4.33-34.29-23.37-23.39-49.64-23.49-33.24-.12-44.28-9.74-50,20.6-2.8,15,15.51,10.83,16.37-2.08l2.3-2.29c5,4.26,11.28,4.21,16.37,0l2.3,2.29a12.54,12.54,0,0,0,.34,16.7l-2.31,2.3c-18.64-5.79-18.17,29.16-.33,24.57l2.64,2.62c-4.46,5.08-4.46,11.32,0,16.4l-2.31,2.28c-5.19-4.37-11.57-4.21-16.7.34l-2.62-2.62c6-18.24-30.27-18.65-24.24,0l-2.62,2.62c-5.14-4.55-11.53-4.71-16.72-.34l-2.3-2.28c4.46-5.08,4.46-11.32,0-16.4l2.63-2.62c25.36-.82,3.62-22.26-21.76-16.06-17.06,4.18-30.49,16.43-7.74,16.06l2.3,2.3c-4.54,5.14-4.71,11.52-.33,16.72l-2.29,2.28c-5.07-4.44-11.31-4.44-16.38,0l-2.29-2.28c4.8-17.9-30.74-18.87-24.9,0l-2.3,2.28c-5.19-4.37-11.58-4.21-16.72.34l-2.62-2.62c4.55-5.14,4.71-11.53.34-16.72l2.28-2.3c18.45,5.82,18.3-29.68,0-24.9l-2.28-2.29c4.44-5.07,4.44-11.31,0-16.38l2.28-2.29c5.2,4.38,11.58,4.21,16.72-.33l2.3,2.3c-3.23,22.08,11.89,9.32,16.06-7.74,6.88-28.17-18-45.16-16.06-21.76l-2.62,2.63c-5.08-4.46-11.32-4.46-16.4,0l-2.28-2.3c4.37-5.19,4.21-11.58-.34-16.72l2.62-2.62c18.24,6,18.65-30.27,0-24.24l-2.62-2.62c4.55-5.13,4.71-11.51.34-16.7l2.28-2.31c5.08,4.46,11.32,4.46,16.4,0l2.62,2.64c-5.94,18.05,31.65,18.41,24.57-.33l2.3-2.31a12.54,12.54,0,0,0,16.7.34l2.29,2.3c-4.21,5.09-4.26,11.38,0,16.37l-2.29,2.3c-10.85-.74-20,13.92-5,16.37,34.6,5.66,23.58-25,23.49-50-.14-34.67,9-42.54-20.6-49.64-13-3.11-12.72,15.35,2.08,15.72l2.62,2.64c-4.46,5.07-4.46,11.3,0,16.38l-2.62,2.61c-5.07-4.46-11.31-4.46-16.38,0l-2.62-2.61c5.93-18.05-31.65-18.41-24.57.32l-2.3,2.29a12.54,12.54,0,0,0-16.72-.32l-2.28-2.29c4.21-5.09,4.26-11.39,0-16.38l2.28-2.31c17.76,5,18.16-29.86,0-24.89l-2.28-2.3c4.26-5,4.21-11.29,0-16.38l2.62-2.61c5.09,4.21,11.39,4.27,16.38,0l2.3,2.28c-.25,23.06,16,9.34,16.22-14.57.18-24.8-18.28-36.55-16.22-14.91l-2.3,2.28c-5.18-4.38-11.57-4.22-16.72.32l-2.62-2.6c4.55-5.14,4.71-11.53.34-16.72l2.28-2.29c18.41,5.77,18.39-29.46,0-24.9L1323,2448c4.21-5.09,4.26-11.39,0-16.38l2.28-2.29c5,4.28,11.3,4.22,16.4,0l2.28,2.29c-4.5,18,30.72,18.8,24.91,0l2.3-2.29c12.1.79,18.2,6.89,19,19l-2.29,2.28c-6.41-.09-21.59,3-8.59,15,14.54,13.42,37.7-2.92,56.59,18.28,6.48,7.27,5.46,20.68,9.35,24.72,5.76,6,15.58.22,20,4.58q29.44,29.39,58.83,58.83c19.38,19.38,39.69,38.17,58.3,58.31,4.86,5.25-1.6,13.83,4.12,19.5,5.23,5.17,15.35-.17,22.42,7,7.77,7.93,17.1,14.71,20.5,24.49,3,8.5-5.2,27.27,0,34.33,10.77,14.62,16.29-.16,16.06-7.52l2.28-2.29c12.12.79,18.22,6.89,19,19l-2.29,2.3c-18.4-5.8-18.38,29.44,0,24.91l2.29,2.28Zm1098.86-125.16a7.49,7.49,0,0,1,7.88,3.27l2.62-2.62c-4.55-5.13-4.71-11.51-.34-16.7l-2.28-2.31c-5.08,4.46-11.32,4.46-16.4,0l-2.62,2.64c5.94,18.05-31.65,18.41-24.57-.33l-2.3-2.31a12.54,12.54,0,0,1-16.7.34l-2.29,2.3c4.21,5.09,4.26,11.38,0,16.37l2.29,2.3c10.85-.74,20,13.92,5,16.37-34.6,5.66-23.58-25-23.49-50,.14-34.67-9-42.54,20.6-49.64,13-3.11,12.72,15.35-2.08,15.72l-2.62,2.64c4.46,5.07,4.46,11.3,0,16.38l2.62,2.61c5.07-4.46,11.31-4.46,16.38,0l2.62-2.61c-5.93-18.05,31.65-18.41,24.57.32l2.3,2.29a12.54,12.54,0,0,1,16.72-.32l2.28-2.29c-4.21-5.09-4.26-11.39,0-16.38l-2.28-2.31c-17.76,5-18.16-29.86,0-24.89l2.28-2.3c-4.26-5-4.21-11.29,0-16.38l-2.62-2.61c-5.09,4.21-11.39,4.27-16.38,0l-2.3,2.28c.25,23.06-16,9.34-16.21-14.57-.19-24.8,18.27-36.55,16.21-14.91l2.3,2.28c5.18-4.38,11.57-4.22,16.72.32l2.62-2.6c-4.55-5.14-4.71-11.53-.34-16.72l-2.28-2.29c-18.41,5.77-18.39-29.46,0-24.9l2.28-2.3c-4.21-5.09-4.26-11.39,0-16.38l-2.28-2.29c-5,4.28-11.3,4.22-16.4,0l-2.28,2.29c4.5,18-30.72,18.8-24.91,0l-2.3-2.29c-12.1.79-18.2,6.89-19,19l2.29,2.28c6.41-.09,21.59,3,8.59,15-14.54,13.42-37.7-2.92-56.59,18.28-6.48,7.27-5.46,20.68-9.35,24.72-5.76,6-15.58.22-20,4.58Q2601.42,2542.6,2572,2572c-19.38,19.38-39.69,38.17-58.3,58.31-4.86,5.25,1.6,13.83-4.12,19.5-5.23,5.17-15.35-.17-22.42,7-7.77,7.93-17.1,14.71-20.5,24.49-3,8.5,5.2,27.27,0,34.33-10.77,14.62-16.29-.16-16.06-7.52l-2.28-2.29c-12.12.79-18.22,6.89-19,19l2.29,2.3c18.4-5.8,18.38,29.44,0,24.91l-2.29,2.28c4.22,5.1,4.28,11.4,0,16.4l2.29,2.28c5-4.26,11.29-4.21,16.38,0l2.3-2.28c-4.54-18,30.69-18.83,24.9,0l2.29,2.28c5.19-4.37,11.58-4.21,16.72.34l2.6-2.62c-4.54-5.15-4.7-11.54-.32-16.72l-2.28-2.3c-22.83-.54-9-16.39,14.91-16.21,25,.18,36.14,19.08,14.57,16.21l-2.28,2.3c4.27,5,4.21,11.29,0,16.38l2.61,2.62c5.09-4.21,11.39-4.26,16.38,0l2.3-2.28c-5-17.76,29.86-18.16,24.89,0l2.31,2.28c5-4.26,11.29-4.21,16.38,0l2.29-2.28a12.54,12.54,0,0,1,.32-16.72l-2.29-2.3c-18.63,5.8-18.16-29.16-.32-24.57l2.61-2.62c-4.46-5.07-4.46-11.31,0-16.38l-2.61-2.62c-5.08,4.46-11.31,4.46-16.38,0l-2.64,2.62c1.43,12.25-14,18.74-15.72,5-4.33-34.29,23.37-23.39,49.64-23.49,33.24-.12,44.28-9.74,50,20.6,2.8,15-15.51,10.83-16.37-2.08l-2.3-2.29c-5,4.26-11.28,4.21-16.37,0l-2.3,2.29a12.54,12.54,0,0,1-.34,16.7l2.31,2.3c18.64-5.79,18.17,29.16.33,24.57l-2.64,2.62c4.46,5.08,4.46,11.32,0,16.4l2.31,2.28c5.19-4.37,11.57-4.21,16.7.34l2.62-2.62c-6-18.24,30.27-18.65,24.24,0l2.62,2.62c5.14-4.55,11.53-4.71,16.72-.34l2.3-2.28c-4.46-5.08-4.46-11.32,0-16.4l-2.63-2.62c-25.36-.82-3.62-22.26,21.76-16.06,17.06,4.18,30.49,16.43,7.74,16.06l-2.3,2.3c4.54,5.14,4.71,11.52.33,16.72l2.29,2.28c5.07-4.44,11.31-4.44,16.38,0l2.29-2.28c-4.8-17.9,30.74-18.87,24.9,0l2.3,2.28c5.19-4.37,11.58-4.21,16.72.34l2.62-2.62c-4.55-5.14-4.71-11.53-.34-16.72l-2.28-2.3c-18.45,5.82-18.3-29.68,0-24.9l2.28-2.29c-4.44-5.07-4.44-11.31,0-16.38l-2.28-2.29c-5.2,4.38-11.58,4.21-16.72-.33l-2.3,2.3c3.23,22.08-11.89,9.32-16.06-7.74-6.88-28.17,17.95-45.16,16.06-21.76l2.62,2.63c5.08-4.46,11.32-4.46,16.4,0l2.28-2.3c-4.37-5.19-4.21-11.58.34-16.72l-2.62-2.62C2754.25,2664.76,2754.67,2643.8,2762.89,2631.84ZM1656.49,1341.3c3.25-.78,5.89,0,7.87,2.61l2.29-2.28c-4.22-5.1-4.28-11.4,0-16.4l-2.29-2.28c-5,4.26-11.29,4.21-16.38,0l-2.3,2.28c4.54,18-30.69,18.83-24.9,0l-2.29-2.28c-5.19,4.37-11.58,4.21-16.72-.34l-2.6,2.62c4.54,5.15,4.7,11.54.32,16.72l2.28,2.3c22.83.54,9,16.39-14.91,16.21-25-.18-36.14-19.08-14.57-16.21l2.29-2.3c-4.28-5-4.22-11.29,0-16.38L1572,1323c-5.09,4.21-11.39,4.26-16.38,0l-2.3,2.28c5,17.76-29.86,18.16-24.89,0l-2.31-2.28c-5,4.26-11.29,4.21-16.38,0l-2.29,2.28a12.54,12.54,0,0,1-.32,16.72l2.29,2.3c18.63-5.8,18.16,29.16.32,24.57l-2.61,2.62c4.46,5.07,4.46,11.31,0,16.38l2.61,2.62c5.08-4.46,11.31-4.46,16.38,0l2.64-2.62c-1.43-12.25,14-18.74,15.72-5,4.33,34.29-23.37,23.39-49.64,23.49-33.24.12-44.28,9.74-50-20.6-2.8-15,15.51-10.83,16.37,2.08l2.3,2.29c5-4.26,11.28-4.21,16.37,0l2.3-2.29a12.54,12.54,0,0,1,.34-16.7l-2.31-2.3c-18.64,5.79-18.17-29.16-.33-24.57l2.64-2.62c-4.46-5.08-4.46-11.32,0-16.4l-2.31-2.28c-5.19,4.37-11.57,4.21-16.7-.34l-2.62,2.62c6,18.24-30.27,18.65-24.24,0l-2.62-2.62c-5.14,4.55-11.53,4.71-16.72.34l-2.3,2.28c4.46,5.08,4.46,11.32,0,16.4l2.63,2.62c25.36.82,3.62,22.26-21.76,16.06-17.06-4.18-30.49-16.43-7.74-16.06l2.3-2.3c-4.54-5.14-4.71-11.52-.33-16.72l-2.29-2.28c-5.07,4.44-11.31,4.44-16.38,0l-2.29,2.28c4.8,17.9-30.74,18.87-24.9,0L1342,1323c-5.19,4.37-11.58,4.21-16.72-.34l-2.62,2.62c4.55,5.14,4.71,11.53.34,16.72l2.28,2.3c18.45-5.82,18.3,29.68,0,24.9l-2.28,2.29c4.44,5.07,4.44,11.31,0,16.38l2.28,2.29c5.2-4.38,11.58-4.21,16.72.33l2.3-2.3c-3.23-22.08,11.89-9.32,16.06,7.74,6.88,28.17-18,45.16-16.06,21.76l-2.62-2.63c-5.08,4.46-11.32,4.46-16.4,0l-2.28,2.3c4.37,5.19,4.21,11.58-.34,16.72l2.62,2.62c18.24-6,18.65,30.27,0,24.24l-2.62,2.62c4.55,5.13,4.71,11.51.34,16.7l2.28,2.31c5.08-4.46,11.32-4.46,16.4,0l2.62-2.64c-5.94-18.05,31.65-18.41,24.57.33l2.3,2.31a12.54,12.54,0,0,1,16.7-.34l2.29-2.3c-4.21-5.09-4.26-11.38,0-16.37l-2.29-2.3c-10.85.74-20-13.92-5-16.37,34.6-5.66,23.58,25,23.49,50-.14,34.67,9,42.54-20.6,49.64-13,3.11-12.72-15.35,2.08-15.72l2.62-2.64c-4.46-5.07-4.46-11.3,0-16.38l-2.62-2.61c-5.07,4.46-11.31,4.46-16.38,0l-2.62,2.61c5.93,18-31.65,18.41-24.57-.32l-2.3-2.29a12.54,12.54,0,0,1-16.72.32l-2.28,2.29c4.21,5.09,4.26,11.39,0,16.38l2.28,2.31c17.76-5,18.16,29.86,0,24.89l-2.28,2.3c4.26,5,4.21,11.29,0,16.38l2.62,2.62c5.09-4.22,11.39-4.28,16.38,0l2.3-2.29c-.25-23.06,16-9.34,16.22,14.57.18,24.8-18.28,36.55-16.22,14.91l-2.3-2.28c-5.18,4.38-11.57,4.22-16.72-.32l-2.62,2.6c4.55,5.14,4.71,11.53.34,16.72l2.28,2.29c18.41-5.77,18.39,29.46,0,24.9L1323,1648c4.21,5.09,4.26,11.39,0,16.38l2.28,2.29c5-4.28,11.3-4.22,16.4,0l2.28-2.29c-4.5-18,30.73-18.81,24.91,0l2.3,2.29c12.1-.79,18.2-6.89,19-19l-2.29-2.28c-6.41.09-21.59-3-8.59-15,14.54-13.42,37.7,2.92,56.59-18.28,6.48-7.27,5.46-20.68,9.35-24.72,5.76-6,15.58-.22,20-4.58q29.44-29.38,58.83-58.83c19.38-19.38,39.69-38.17,58.3-58.31,4.86-5.25-1.6-13.83,4.12-19.5,5.23-5.17,15.35.17,22.42-7,7.77-7.93,17.1-14.71,20.5-24.49,3-8.5-5.2-27.27,0-34.33,10.77-14.62,16.29.16,16.06,7.52l2.28,2.29c12.12-.79,18.22-6.89,19-19l-2.29-2.3C1647.83,1374,1648.21,1353.31,1656.49,1341.3Zm1106.4,92.07a7.51,7.51,0,0,1,7.88,3.28l2.62-2.62c-4.55-5.14-4.71-11.53-.34-16.72l-2.28-2.3c-5.08,4.46-11.32,4.46-16.4,0l-2.62,2.63c-.82,25.36-22.26,3.62-16.06-21.76,4.18-17.06,16.43-30.49,16.06-7.74l2.3,2.3c5.14-4.54,11.52-4.71,16.72-.33l2.28-2.29c-4.44-5.07-4.44-11.31,0-16.38l-2.28-2.29c-17.9,4.8-18.87-30.74,0-24.9l2.28-2.3c-4.37-5.19-4.21-11.58.34-16.72l-2.62-2.62c-5.14,4.55-11.53,4.71-16.72.34l-2.3,2.28c5.82,18.45-29.68,18.3-24.9,0l-2.29-2.28c-5.07,4.44-11.31,4.44-16.38,0l-2.29,2.28c4.38,5.2,4.21,11.58-.33,16.72l2.3,2.3c22.08-3.23,9.32,11.89-7.74,16.06-28.17,6.88-45.16-18-21.76-16.06l2.63-2.62c-4.46-5.08-4.46-11.32,0-16.4l-2.3-2.28c-5.19,4.37-11.58,4.21-16.72-.34l-2.62,2.62c6,18.24-30.27,18.65-24.24,0l-2.62-2.62c-5.13,4.55-11.51,4.71-16.7.34l-2.31,2.28c4.46,5.08,4.46,11.32,0,16.4l2.64,2.62c18.05-5.94,18.41,31.65-.33,24.57l-2.31,2.3a12.54,12.54,0,0,1,.34,16.7l2.3,2.29c5.09-4.21,11.38-4.26,16.37,0l2.3-2.29c-.74-10.85,13.92-20,16.37-5,5.66,34.6-25,23.58-50,23.49-34.67-.14-42.54,9-49.64-20.6-3.11-13,15.35-12.72,15.72,2.08l2.64,2.62c5.07-4.46,11.3-4.46,16.38,0l2.61-2.62c-4.46-5.07-4.46-11.31,0-16.38l-2.61-2.62c-18.05,5.93-18.41-31.65.32-24.57l2.29-2.3a12.54,12.54,0,0,1-.32-16.72l-2.29-2.28c-5.09,4.21-11.39,4.26-16.38,0l-2.31,2.28c5,17.76-29.86,18.16-24.89,0l-2.3-2.28c-5,4.26-11.29,4.21-16.38,0l-2.61,2.62c4.21,5.09,4.27,11.39,0,16.38l2.28,2.3c23.06-.25,9.34,16-14.57,16.21-24.8.19-36.55-18.27-14.91-16.21l2.28-2.3c-4.38-5.18-4.22-11.57.32-16.72l-2.6-2.62c-5.14,4.55-11.53,4.71-16.72.34l-2.29,2.28c5.77,18.41-29.46,18.39-24.9,0L2448,1323c-5.09,4.21-11.39,4.26-16.38,0l-2.29,2.28c4.28,5,4.22,11.3,0,16.4l2.29,2.28c18-4.5,18.81,30.73,0,24.91l-2.29,2.3c.79,12.1,6.89,18.2,19,19l2.28-2.29c-.09-6.41,3-21.59,15-8.59,13.42,14.54-2.92,37.7,18.28,56.59,7.27,6.48,20.68,5.46,24.72,9.35,6,5.76.22,15.58,4.58,20q29.39,29.44,58.83,58.83c19.38,19.38,38.17,39.69,58.31,58.3,5.25,4.86,13.83-1.6,19.5,4.12,5.17,5.23-.17,15.35,7,22.42,7.93,7.77,14.71,17.1,24.49,20.5,8.5,3,27.27-5.2,34.33,0,14.62,10.77-.16,16.29-7.52,16.06l-2.29,2.28c.79,12.12,6.89,18.22,19,19l2.3-2.29c-5.8-18.4,29.44-18.38,24.91,0l2.28,2.29c5.1-4.22,11.4-4.28,16.4,0l2.28-2.29c-4.26-5-4.21-11.29,0-16.38l-2.28-2.3c-18,4.54-18.83-30.69,0-24.9l2.28-2.29c-4.37-5.19-4.21-11.58.34-16.72l-2.62-2.6c-5.15,4.54-11.54,4.7-16.72.32l-2.3,2.28c-.54,22.83-16.39,9-16.21-14.91.18-25,19.08-36.14,16.21-14.57l2.3,2.29c5-4.28,11.29-4.22,16.38,0l2.62-2.62c-4.21-5.09-4.26-11.39,0-16.38l-2.28-2.3c-17.76,5-18.16-29.86,0-24.89l2.28-2.31c-4.26-5-4.21-11.29,0-16.38l-2.28-2.29a12.54,12.54,0,0,1-16.72-.32l-2.3,2.29c5.8,18.63-29.16,18.16-24.57.32l-2.62-2.61c-5.07,4.46-11.31,4.46-16.38,0l-2.62,2.61c4.46,5.08,4.46,11.31,0,16.38l2.62,2.64c12.25-1.43,18.74,14,5,15.72-34.29,4.33-23.39-23.37-23.49-49.64-.12-33.24-9.74-44.28,20.6-50,15-2.8,10.83,15.51-2.08,16.37l-2.29,2.3c4.26,5,4.21,11.28,0,16.37l2.29,2.3a12.54,12.54,0,0,1,16.7.34l2.3-2.31c-5.79-18.64,29.16-18.17,24.57-.33l2.62,2.64c5.08-4.46,11.32-4.46,16.4,0l2.28-2.31c-4.37-5.19-4.21-11.57.34-16.7l-2.62-2.62C2754.25,1466.29,2754.67,1445.33,2762.89,1433.37ZM1763.54,2307c-4.28-2.89-7-6.94-7.41-11.58h-3.26c-9.48,15.92-35-8.42-17.6-17.6l0-3.24c-6.77-.57-11.17-5.19-11.6-12.05H1720c-.43,6.86-4.83,11.49-11.6,12.05l0,3.24c15.92,16.48-5.65,17.11-22,.69-17.75-17.81-12-38.68,1.16-21.55h3.24c.51-6.55,5-11,11.6-11.58v-3.7c-6.59-.62-11.09-5-11.6-11.58h-3.24c-10,16.47-56.92,3.52-76.92,11.58v3.7c6.73.44,11.14,4.85,11.58,11.58h3.72c17-16.26,23.11,12.65,3,19.28-15.53,5.12-43.38-25.17-35.67-39.88-17.79-2.81-15.77-47-3-53.41,20-10.09,35,18.47,11.51,15.72l-2.6,2.64c4.44,5.06,4.44,11.29,0,16.37l2.6,2.62c20.07-8.28,43.75-50.86,62.59-46.19l2.29-2.3c-4.28-5-4.22-11.29,0-16.39l-2.62-2.62c-5.1,4.22-11.39,4.28-16.39,0l-2.28,2.3c.22,22.88-16,9.57-16.06-14.41,0-22.77,15.69-38.22,16.06-15.09l2.28,2.3c5.19-4.38,11.57-4.22,16.72.32l2.61-2.62c-4.54-5.14-4.7-11.52-.32-16.7l-2.29-2.29c-18.39,5.79-18.38-29.47,0-24.91l2.29-2.29c-4.22-5.09-4.28-11.39,0-16.38l-2.29-2.3c-5,4.27-11.29,4.22-16.38,0l-2.3,2.3c4.54,17.95-30.68,18.8-24.9,0l-2.29-2.3c-5.18,4.38-11.57,4.22-16.72-.32l-2.6,2.62c4.54,5.15,4.7,11.53.32,16.72l2.28,2.27c22.86.58,9,16.41-14.91,16.23-25-.18-36.18-19.07-14.57-16.23l2.29-2.27c-4.28-5-4.22-11.3,0-16.4l-2.62-2.62c-5.1,4.22-11.39,4.27-16.38,0l-2.3,2.3c5,17.75-29.86,18.15-24.89,0l-2.31-2.3c-5,4.28-11.28,4.22-16.38,0l-2.29,2.3a12.54,12.54,0,0,1-.32,16.72l2.29,2.27c18.63-5.75,18.16,29.19.32,24.59l-2.61,2.62c4.46,5.08,4.46,11.31,0,16.37l2.61,2.62c5.08-4.44,11.31-4.44,16.38,0l2.64-2.62c-1.42-12.22,14-18.75,15.72-5,4.33,34.29-23.37,23.39-49.64,23.48-33.24.11-44.26,9.72-50-20.59-2.81-14.94,15.51-10.84,16.37,2.07l2.3,2.3c5-4.27,11.28-4.21,16.37,0l2.3-2.3a12.54,12.54,0,0,1,.34-16.7l-2.31-2.29c-18.63,5.79-18.16-29.15-.33-24.59l2.64-2.61c-4.46-5.07-4.46-11.31,0-16.38l-2.31-2.3c-5.17,4.38-11.55,4.22-16.7-.32l-2.62,2.62c6,18.22-30.27,18.63-24.24,0l-2.62-2.62c-5.15,4.54-11.54,4.7-16.72.32l-2.3,2.3c4.45,5.07,4.45,11.31,0,16.38l2.63,2.61c25.38.86,3.58,22.26-21.76,16.07-17.05-4.17-30.5-16.4-7.74-16.07l2.3-2.27c-4.54-5.14-4.71-11.53-.33-16.72l-2.29-2.3c-5.07,4.46-11.31,4.46-16.38,0l-2.29,2.3c4.79,17.88-30.73,18.84-24.9,0l-2.3-2.3c-5.18,4.38-11.57,4.22-16.72-.32l-2.62,2.62c4.55,5.14,4.71,11.52.34,16.72l2.28,2.27c18.45-5.77,18.31,29.72,0,24.91l-2.28,2.3q3.1,1.05,2.93,3.45c6.06-3.8,11.41-1.22,15.42,5.63,22.92-14.53,14.65,10.43,23.45,23.45,21.08,31.18,80,57,92,92,4.7,13.76-6.76,48.07-31,44.53-18.84-2.75-19-41.09.93-21.32h3.69c.44-6.73,4.85-11.13,11.58-11.58v-3.7c-6.74-.44-11.16-4.85-11.59-11.6l-3.71,0c-4.74,11.87-12.42,7.74-20.31-3.64,0,10.89,6.35,48.43-3.14,54.78-13.28,8.89-27.1,1.33-27.48-12.25-10.13,10.12-18.43,22.09-31.54,25.5a57.13,57.13,0,0,0-7.17-7.17c-1.9,6.73-6.08,8.25-11.8,3.76l-2.28,2.29c4.26,5,4.21,11.28,0,16.37l2.62,2.63c5.09-4.23,11.38-4.28,16.38,0l2.3-2.3c-1.24-49.88,56,86.15,20.8,50.23h-3.25c-.51,6.56-5,11-11.58,11.58v3.72c6.58.62,11.06,5,11.58,11.58H1365c.7-7.16,4.73-9,11-5.69a58.29,58.29,0,0,0,0-10.15c11.85-6.6,25.8-4.25,40.35-4.25-9.34-9.88-4.92-25,10.77-28.1,11.2-2.21,33.21,28.84,40.93,36.51-2.41-13.26,0-21.5,11.8-16.93l2.64-2.62c-4.46-5.07-4.46-11.32,0-16.4l-2.64-2.62c-5.07,4.46-11.3,4.46-16.37,0l-2.62,2.62c3.93,27.21-29.62,3.15-15.72-14.41,14.82-18.72,47-4.05,53.4,9.57,15.5,33.2-5.68,93.31,0,130.12,2.38,15.47,26.9,27.31,0,33.15,2,7.59.16,13.44-6.91,14.89,1.21,1,1.32,2.55.35,4.51h3.24c9.25-16.07,35.07,8.37,17.6,17.6v3.23c6.77.58,11.18,5.21,11.6,12.06h3.69c.44-6.85,4.83-11.48,11.59-12.05V2535c-17.12-8.92,8.06-33.92,17.62-17.6h3.23c.43-6.74,4.85-11.15,11.59-11.59v-3.25c-6.77-.58-11.17-5.2-11.59-12h-3.23c-13.38,17.89-15-1.84-5.9-16.83,15-24.73,44.64-19.3,26.76-4l0,3.71c6.74.44,11.15,4.84,11.58,11.58H1593c.57-6.77,5.2-11.16,12-11.58v-3.71c-17.14-8.64,8.23-34.56,17.14-17.15h3.71c.43-6.85,4.83-11.48,11.59-12v-3.24c-6.74-.44-11.14-4.84-11.58-11.58h-3.72c-8.59,16.95-35.42-9.37-17.14-17.62v-3.24a12.56,12.56,0,0,1-12-11.58h-3.26c-.62,6.58-5,11.07-11.58,11.58V2408c8.18,7.14,4.29,24-8.06,15.1-28.46-20.46,1-34.35,18.72-51.95,24.58-24.4,23.73-36.5,49.67-20.52,11.38,7-1.9,19.8-12.59,9.64h-3.72c-.44,6.72-4.85,11.13-11.58,11.58v3.71c6.74.42,11.15,4.83,11.58,11.58h3.71c8.56-17,35.39,9.33,17.15,17.6V2408a12.55,12.55,0,0,1,12,11.59h3.24c.63-6.58,5-11.07,11.58-11.58v-3.25c-16-9,8.3-34,17.62-17.6h3.24c.51-6.55,5-11,11.58-11.58l0-3.71c-6.59-.63-11.09-5-11.6-11.59h-3.24c-16.17,16.45-17.92-4.79-1.16-21.79,17.39-17.65,38.78-12.94,22,.93l0,3.23c6.77.57,11.17,5.2,11.6,12.06h3.7c.42-6.86,4.82-11.49,11.6-12.06l0-3.23c-17.08-8.94,7.85-33.81,17.6-17.61h3.26c.62-6.59,5-11.07,11.58-11.58V2307Zm261.55,324.83a7.47,7.47,0,0,1,7.87,3.27l2.62-2.62c-4.54-5.15-4.7-11.53-.32-16.7l-2.3-2.31c-5.07,4.46-11.31,4.46-16.38,0l-2.61,2.64c5.9,18.05-31.66,18.41-24.59-.33l-2.29-2.31a12.54,12.54,0,0,1-16.7.34l-2.3,2.3c4.21,5.09,4.27,11.38,0,16.37l2.3,2.3c10.84-.74,20,13.93,5,16.37-34.58,5.63-23.56-25-23.48-50,.12-34.66-9-42.55,20.59-49.64,13-3.11,12.69,15.35-2.07,15.72l-2.62,2.64c4.44,5.07,4.44,11.3,0,16.38l2.62,2.61c5.06-4.46,11.29-4.46,16.37,0l2.62-2.61c-5.94-18.05,31.63-18.42,24.59.32l2.27,2.29a12.54,12.54,0,0,1,16.72-.32l2.3-2.29c-4.22-5.1-4.28-11.4,0-16.38l-2.3-2.31c-17.75,5-18.15-29.86,0-24.89l2.3-2.3c-4.27-5-4.22-11.28,0-16.38l-2.62-2.61c-5.1,4.21-11.4,4.27-16.4,0l-2.27,2.28c.21,22.89-16,9.59-16.07-14.41,0-22.76,15.69-38.2,16.07-15.07l2.27,2.28c5.19-4.38,11.57-4.22,16.72.32l2.62-2.6c-4.54-5.15-4.7-11.54-.32-16.72l-2.3-2.29c-18.38,5.76-18.37-29.46,0-24.9l2.3-2.3c-4.22-5.09-4.27-11.39,0-16.38l-2.3-2.29c-5,4.28-11.29,4.22-16.38,0l-2.29,2.29c4.53,18-30.72,18.79-24.91,0l-2.29-2.29c-5.18,4.38-11.56,4.22-16.7-.32l-2.62,2.61c4.54,5.15,4.7,11.53.32,16.72l2.3,2.28c22.85.56,8.94,16.4-14.93,16.22-25-.19-36.15-19.07-14.57-16.22l2.3-2.28c-4.28-5-4.22-11.29,0-16.39l-2.62-2.62c-5.1,4.22-11.4,4.28-16.39,0l-2.3,2.29c4.58,18.73-37.75,42.75-46.19,62.59l2.62,2.6c5.08-4.44,11.31-4.44,16.37,0l2.64-2.6c.54-23.56,25.26-7.43,15.72,11.51-7.36,14.62-48.47,12.87-53.41-3-14.57,10.6-44.35-22.06-39.88-35.67,7-21.3,37.84-11.73,19.28,3v3.72c6.73.44,11.14,4.85,11.58,11.58h3.7c8.33-20-5-66.88,11.58-76.92v-3.24c-6.55-.51-11-5-11.58-11.6l-3.7,0c-.62,6.58-5,11.07-11.58,11.58v3.24c16.34,16-4.55,18.1-21.55,1.16-16.11-16.06-15.92-38.12.69-22l3.24,0c.56-6.77,5.19-11.17,12-11.6v-3.7c-6.85-.43-11.48-4.83-12-11.6l-3.24,0c-8.9,17.08-33.83-7.85-17.6-17.6v-3.26c-6.58-.62-11.07-5-11.58-11.58h-3.26c-.51,6.55-5,11-11.58,11.58v3.26c15.89,9.47-8.39,35-17.61,17.6l-3.23,0c-.57,6.78-5.2,11.18-12.06,11.6v3.7c6.86.43,11.49,4.83,12.06,11.6l3.23,0c16.56-15.76,17.93,5.27.93,22-17.8,17.55-39.06,12.11-21.79-1.16v-3.24c-6.54-.51-11-5-11.59-11.58h-3.71c-.62,6.58-5,11.07-11.58,11.58v3.24c16.09,9-8.27,34-17.6,17.62H1688c-.51,6.54-5,10.95-11.58,11.58v3.24a12.55,12.55,0,0,1,11.59,12h3.24c9.1-17.25,33.49,7.79,17.6,17.15v3.71c6.75.43,11.16,4.84,11.58,11.58h3.71c.45-6.73,4.86-11.14,11.58-11.58v-3.72c-9.64-7.63-3.38-23.13,7.6-14.63,27.36,21.16,0,33.09-18.48,51.71-23.41,23.57-24.45,38.2-49.91,20.76-12.56-8.6,3.34-18.6,13.06-10.1h3.25c.5-6.56,5-11,11.58-11.58V2503a12.56,12.56,0,0,1-11.58-12H1688c-9.08,17.29-33.47-7.76-17.62-17.14v-3.72c-6.74-.44-11.14-4.84-11.58-11.58h-3.24c-.56,6.76-5.19,11.16-12,11.59v3.71c17.11,8.64-8.24,34.58-17.15,17.14h-3.71c-.42,6.84-4.81,11.47-11.58,12v3.26c6.74.43,11.14,4.84,11.58,11.58l3.71,0c18.56-17.34,18.26,13.23-4,26.76-15,9.1-33.16,10-16.83-5.9v-3.23c-6.85-.42-11.47-4.82-12-11.59h-3.25c-.44,6.74-4.85,11.16-11.59,11.59v3.23c16,9.27-8.4,35-17.6,17.62h-3.25c-.57,6.76-5.2,11.15-12,11.59v3.69c6.85.42,11.48,4.83,12.06,11.6H1561c9-17.16,33.94,8.06,17.6,17.6V2604c2-1,3.46-.86,4.51.35,1.61-7,7.22-8.92,14.89-6.91,5.94-26.46,17.73-3,33.15,0,37,7.15,96.94-16.28,130.12,0,13,6.41,29.22,38.77,9.57,53.4-15.27,11.37-42.46-15.66-14.41-15.72l2.62-2.62c-4.46-5.07-4.46-11.3,0-16.37l-2.62-2.64c-5.08,4.46-11.33,4.46-16.4,0l-2.62,2.64c5,11.75-3.31,14.27-16.93,11.8,7.67,7.72,38.73,29.74,36.51,40.93-3.09,15.62-18.16,20.11-28,10.83.12,16.72,8.75,42.81-14.43,40.31,3.38,6.1,1.48,10.12-5.72,11v3.23c6.55.52,11,5,11.58,11.58h3.72c.61-6.59,5-11.07,11.58-11.58V2731c-36-34.42,100.4,21.31,50.23,20.8l-2.3,2.3c4.28,5,4.23,11.29,0,16.38l2.63,2.62c5.09-4.21,11.38-4.26,16.37,0l2.29-2.28c-4.57-5.56-3-9.73,3.76-11.8a57.13,57.13,0,0,0-7.17-7.17c3.69-13.05,15.21-21.24,25.5-31.54-13.58-.38-21.14-14.2-12.25-27.48,6.35-9.49,43.89-3.1,54.78-3.14-11.09-7.67-15.24-15.18-3.64-20.31l0-3.71c-6.75-.43-11.16-4.85-11.6-11.59h-3.7c-.45,6.73-4.85,11.14-11.58,11.58v3.69c22,16.48-18.74,23.17-21.32.93-2.75-23.71,30.39-36.12,44.53-31,34.43,12.51,62,70,92,92,12.63,9.26,38.37.29,23.45,23.45,6.78,4,9.62,9.4,5.63,15.42q2.4-.18,3.45,2.93l2.3-2.28c-4.82-17.91,30.7-18.86,24.91,0l2.27,2.28c5.2-4.37,11.58-4.21,16.72.34l2.62-2.62c-4.54-5.15-4.7-11.54-.32-16.72l-2.3-2.3c-18.42,5.81-18.29-29.68,0-24.9l2.3-2.29c-4.46-5.07-4.46-11.31,0-16.38l-2.3-2.29c-5.19,4.38-11.58,4.21-16.72-.33l-2.27,2.3c3.19,22.11-11.91,9.3-16.07-7.74-6.86-28.13,17.93-45.19,16.07-21.76l2.61,2.63c5.07-4.45,11.31-4.45,16.38,0l2.3-2.3c-4.38-5.18-4.22-11.57.32-16.72l-2.62-2.62C2016.46,2664.75,2016.88,2643.8,2025.09,2631.84Zm260.15,196.88c-4.27-2.89-7-6.95-7.41-11.59h-3.24c-9.5,15.9-35-8.42-17.62-17.61v-3.24c-9.11-8-17.75-8-26.86,0v3.23c4.59,4.45,13.14,17.38-4.53,16.67-19.76-.79-24.6-28.71-52.94-27.09-9.73.55-18.47,10.77-24.08,10.88-8.31.16-11.19-10.88-17.37-10.88q-41.59-.06-83.19,0c-27.41,0-55-1.09-82.44,0-7.15.28-8.66,10.92-16.72,10.88-7.36,0-10.72-11-20.83-10.88-11.09.11-22.48-1.7-31.8,2.81-8.09,3.92-15.6,23-24.28,24.28-18,2.72-11.39-11.64-6-16.67v-3.23c-9.11-8-17.75-8-26.86,0v3.24c17.08,8.91-7.84,33.82-17.62,17.61h-3.24c-.63,6.6-5,11.09-11.59,11.59V2832c6.55.51,11,5,11.58,11.58h3.24c9.5-15.92,35,8.38,17.62,17.6v3.23c6.76.59,11.16,5.22,11.58,12.06h3.69c.43-6.85,4.83-11.48,11.59-12v-3.25c-15.75-16.52,5.26-17.93,22-.92,17.55,17.82,12.07,39.07-1.17,21.79h-3.24c-.51,6.54-5,10.95-11.58,11.58v3.69c6.58.63,11.07,5.05,11.58,11.59h3.24c9-16.05,33.93,8.3,17.6,17.62l0,3.24c6.54.52,11,5,11.58,11.58h3.24a12.53,12.53,0,0,1,12-11.58v-3.25c-17.26-9.07,7.78-33.46,17.14-17.61h3.71c.44-6.74,4.85-11.15,11.59-11.59v-3.69c-6.74-.43-11.15-4.84-11.58-11.58l-3.72,0c-7.66,9.69-23.13,3.37-14.63-7.6,21.16-27.34,33.07,0,51.7,18.49,23.58,23.41,38.21,24.44,20.77,49.91-8.59,12.55-18.62-3.32-10.1-13.06l0-3.24c-6.53-.53-10.95-5-11.58-11.58h-3.24a12.55,12.55,0,0,1-12,11.58v3.25c17.28,9.08-7.78,33.46-17.14,17.6h-3.72c-.43,6.74-4.84,11.15-11.58,11.59v3.25c6.77.58,11.17,5.2,11.58,12h3.71c8.65-17.13,34.59,8.22,17.15,17.14v3.71c6.85.42,11.47,4.81,12,11.58h3.24c.44-6.74,4.85-11.15,11.6-11.59l0-3.71c-17.34-18.55,13.22-18.28,26.76,4,9.1,15,10,33.19-5.9,16.83h-3.24c-.42,6.85-4.82,11.48-11.58,12v3.24c6.72.45,11.13,4.86,11.59,11.58H2017c9.27-16,35.07,8.41,17.6,17.62l0,3.24c6.77.57,11.16,5.2,11.58,12.06h3.7c.42-6.86,4.81-11.49,11.58-12.06l0-3.24c-17.16-8.93,8-33.93,17.6-17.62h3.23c.46-6.72,4.87-11.13,11.59-11.58v-3.24c-6.76-.56-11.16-5.19-11.58-12h-3.24c-13.36,17.91-15-1.84-5.9-16.83,15-24.76,44.64-19.27,26.76-4l0,3.71c6.75.44,11.16,4.85,11.6,11.59h3.24c.57-6.77,5.19-11.16,12-11.58v-3.71c-17.13-8.65,8.23-34.57,17.15-17.14h3.71c.41-6.85,4.81-11.47,11.58-12v-3.25c-6.74-.44-11.15-4.85-11.58-11.59h-3.72c-8.56,17-35.41-9.35-17.14-17.6v-3.25a12.55,12.55,0,0,1-12-11.58h-3.24c-.63,6.56-5,11-11.58,11.58l0,3.24c8.2,7.15,4.29,24-8.06,15.1-28.46-20.46,1-34.35,18.73-52,24.6-24.42,23.72-36.47,49.66-20.53,11.35,7-1.87,19.86-12.59,9.64l-3.72,0c-.43,6.74-4.84,11.15-11.58,11.58v3.69c6.74.44,11.16,4.85,11.59,11.59h3.71c8.57-17,35.38,9.37,17.14,17.61v3.25a12.53,12.53,0,0,1,12,11.58h3.24c.63-6.57,5-11.06,11.58-11.58l0-3.24c-16.06-9,8.27-33.95,17.6-17.62h3.24c.51-6.54,5-11,11.58-11.59v-3.69c-6.59-.63-11.08-5-11.58-11.6l-3.24,0c-16.15,16.47-17.93-4.78-1.17-21.79,17.4-17.65,38.77-12.92,22,.92v3.25c6.76.57,11.16,5.2,11.59,12h3.69c.42-6.84,4.82-11.47,11.58-12.06v-3.23c-17.07-8.95,7.85-33.83,17.62-17.6h3.24c.62-6.58,5-11.07,11.58-11.58v-3.25ZM1299.7,1865.89c8-9.11,8-17.75,0-26.86h-3.24c-8.91,17.08-33.82-7.84-17.61-17.62v-3.24c-6.6-.63-11.09-5-11.59-11.59H1264c-.51,6.55-5,11-11.58,11.58v3.24c15.92,9.5-8.37,35-17.6,17.62h-3.23c-.59,6.76-5.22,11.16-12.06,11.58v3.69c6.85.43,11.48,4.83,12,11.59h3.25c16.52-15.75,17.93,5.26.92,22-17.82,17.55-39.07,12.07-21.79-1.17v-3.24c-6.54-.51-11-5-11.58-11.58h-3.69c-.63,6.58-5,11.07-11.59,11.58v3.24c16.05,9-8.3,33.93-17.62,17.6l-3.24,0c-.52,6.54-5,11-11.58,11.58v3.24a12.53,12.53,0,0,1,11.58,12h3.25c9.07-17.26,33.46,7.78,17.61,17.14v3.71c6.74.44,11.15,4.85,11.59,11.59h3.69c.43-6.74,4.84-11.15,11.58-11.58l0-3.72c-9.69-7.66-3.37-23.13,7.6-14.63,27.34,21.16,0,33.07-18.49,51.7-23.41,23.58-24.44,38.21-49.91,20.77-12.55-8.59,3.32-18.62,13.06-10.1l3.24,0c.53-6.53,5-10.95,11.58-11.58v-3.24a12.55,12.55,0,0,1-11.58-12h-3.25c-9.08,17.28-33.46-7.78-17.6-17.14v-3.72c-6.74-.43-11.15-4.84-11.59-11.58h-3.25c-.58,6.77-5.2,11.17-12,11.58v3.71c17.13,8.65-8.22,34.59-17.14,17.15h-3.71c-.42,6.85-4.81,11.47-11.58,12v3.24c6.74.44,11.15,4.85,11.59,11.6l3.71,0c18.55-17.34,18.28,13.22-4,26.76-15,9.1-33.19,10-16.83-5.9v-3.24c-6.85-.42-11.48-4.82-12-11.58h-3.24c-.45,6.72-4.86,11.13-11.58,11.59V2017c16,9.27-8.41,35.07-17.62,17.6l-3.24,0c-.57,6.77-5.2,11.16-12.06,11.58v3.7c6.86.42,11.49,4.81,12.06,11.58l3.24,0c8.93-17.16,33.93,8,17.62,17.6v3.23c6.72.46,11.13,4.87,11.58,11.59h3.24c.56-6.76,5.19-11.16,12-11.58v-3.24c-17.91-13.36,1.84-15,16.83-5.9,24.76,15,19.27,44.64,4,26.76l-3.71,0c-.44,6.75-4.85,11.16-11.59,11.6v3.24c6.77.57,11.16,5.19,11.58,12h3.71c8.65-17.13,34.57,8.23,17.14,17.15v3.71c6.85.41,11.47,4.81,12,11.58h3.25c.44-6.74,4.85-11.15,11.59-11.58v-3.72c-17-8.56,9.35-35.41,17.6-17.14h3.25a12.55,12.55,0,0,1,11.58-12v-3.24c-6.56-.63-11-5-11.58-11.58l-3.24,0c-7.15,8.2-24,4.29-15.1-8.06,20.46-28.46,34.35,1,51.95,18.73,24.42,24.6,36.47,23.72,20.53,49.66-7,11.35-19.86-1.87-9.64-12.59l0-3.72c-6.74-.43-11.15-4.84-11.58-11.58h-3.69c-.44,6.74-4.85,11.15-11.59,11.59v3.71c17,8.57-9.37,35.38-17.61,17.14h-3.25a12.53,12.53,0,0,1-11.58,12v3.24c6.57.63,11.06,5,11.58,11.58l3.24,0c9-16.06,34,8.27,17.62,17.6v3.24c6.54.51,11,5,11.59,11.58h3.69c.63-6.58,5-11.07,11.58-11.58v-3.24c-16.47-16.15,4.78-17.93,21.79-1.17,17.65,17.4,12.92,38.77-.92,22h-3.25c-.57,6.76-5.2,11.16-12,11.59v3.69c6.84.42,11.47,4.82,12.06,11.58h3.23c9-17.07,33.83,7.85,17.6,17.62v3.24c6.58.62,11.07,5,11.58,11.58h3.25c.5-6.55,5-11,11.59-11.59v-3.24c-15.9-9.5,8.42-35,17.61-17.62h3.24c8-9.11,8-17.75,0-26.86h-3.23c-4.45,4.59-17.38,13.14-16.67-4.53.79-19.76,28.71-24.6,27.09-52.94-.55-9.73-10.77-18.47-10.88-24.08-.16-8.31,10.88-11.19,10.88-17.37q.06-41.59,0-83.19c0-27.41,1.09-55,0-82.44-.28-7.15-10.92-8.66-10.88-16.72,0-7.36,11-10.72,10.88-20.83-.11-11.09,1.7-22.48-2.81-31.8-3.92-8.09-23-15.6-24.28-24.28-2.72-18,11.64-11.39,16.67-6Zm1246.42,702c-4.75-2.7-7.61-6.68-7.88-11.58H2535c-8.92,17.12-33.92-8.06-17.6-17.62v-3.23c-6.74-.43-11.15-4.85-11.59-11.59h-3.25c-.58,6.77-5.2,11.17-12,11.59v3.23c17.89,13.38-1.84,15-16.83,5.9-24.73-15-19.29-44.64-4-26.76l3.71,0c.44-6.74,4.84-11.15,11.58-11.58V2503c-6.77-.57-11.16-5.2-11.58-12h-3.71c-8.64,17.14-34.56-8.23-17.15-17.14v-3.71c-6.85-.43-11.48-4.83-12-11.59h-3.24c-.44,6.74-4.84,11.14-11.58,11.58v3.72c16.95,8.59-9.37,35.42-17.62,17.14h-3.24a12.56,12.56,0,0,1-11.58,12v3.26c6.58.62,11.07,5,11.58,11.58H2408c7.14-8.18,24-4.29,15.1,8.06-20.46,28.46-34.35-1-51.95-18.72-24.4-24.58-36.5-23.73-20.52-49.67,7-11.38,19.8,1.9,9.64,12.59v3.72c6.72.44,11.13,4.85,11.58,11.58h3.71c.42-6.74,4.83-11.15,11.58-11.58v-3.71c-17-8.56,9.33-35.39,17.6-17.15H2408a12.55,12.55,0,0,1,11.59-12v-3.24c-6.58-.63-11.07-5-11.58-11.58h-3.25c-9,16-34-8.3-17.6-17.62v-3.24c-6.55-.51-11-5-11.58-11.58l-3.71,0c-.63,6.59-5,11.09-11.59,11.6v3.24c16.32,16-4.57,18.09-21.56,1.16-16.13-16.07-15.92-38.12.7-22l3.23,0c.57-6.77,5.2-11.17,12.06-11.6v-3.7c-6.86-.42-11.49-4.82-12.06-11.6l-3.23,0c-8.94,17.08-33.81-7.85-17.61-17.6v-3.26c-6.59-.62-11.07-5-11.58-11.58H2307c-.51,6.55-5,11-11.58,11.58v3.26c15.92,9.48-8.42,35-17.6,17.6l-3.24,0c-.57,6.77-5.19,11.17-12.05,11.6v3.7c6.86.43,11.49,4.83,12.05,11.6l3.24,0c16.55-15.76,17.91,5.28.92,22-17.82,17.56-39.06,12.09-21.78-1.16v-3.24c-6.55-.51-11-5-11.58-11.6h-3.7c-.62,6.59-5,11.09-11.58,11.6v3.24c16.47,10,3.52,56.92,11.58,76.92h3.7c.44-6.73,4.85-11.14,11.58-11.58v-3.72c-16.26-17,12.65-23.11,19.28-3,5.12,15.53-25.17,43.38-39.88,35.67-2.81,17.79-47,15.77-53.41,3-10.09-20,18.47-35,15.72-11.51l2.64,2.6c5.06-4.44,11.29-4.44,16.37,0l2.62-2.6c-8.28-20.07-50.86-43.75-46.19-62.59l-2.3-2.29c-5,4.28-11.29,4.22-16.39,0l-2.62,2.62c4.22,5.1,4.28,11.39,0,16.39l2.3,2.28c23.07-.22,9.29,16-14.57,16.22-24.77.19-36.58-18.26-14.93-16.22l2.3-2.28c-4.38-5.19-4.22-11.57.32-16.72l-2.62-2.61c-5.14,4.54-11.52,4.7-16.7.32l-2.29,2.29c5.79,18.38-29.46,18.36-24.91,0l-2.29-2.29c-5.09,4.22-11.39,4.28-16.38,0l-2.3,2.29c4.27,5,4.22,11.29,0,16.38l2.3,2.3c17.95-4.54,18.8,30.68,0,24.9l-2.3,2.29c4.38,5.18,4.22,11.57-.32,16.72l2.62,2.6c5.15-4.54,11.53-4.7,16.72-.32l2.27-2.28c.42-22.92,16.11-8.12,16.07,15.07,0,25.13-18.89,35.82-16.07,14.41l-2.27-2.28c-5,4.27-11.3,4.21-16.4,0l-2.62,2.61c4.22,5.1,4.28,11.39,0,16.38l2.3,2.3c17.75-5,18.15,29.86,0,24.89l-2.3,2.31c4.28,5,4.22,11.28,0,16.38l2.3,2.29a12.54,12.54,0,0,1,16.72.32l2.27-2.29c-5.75-18.63,29.19-18.16,24.59-.32l2.62,2.61c5.08-4.46,11.31-4.46,16.37,0l2.62-2.61c-4.44-5.08-4.44-11.31,0-16.38l-2.62-2.64c-12.22,1.42-18.75-14-5-15.72,34.29-4.33,23.39,23.37,23.48,49.64.11,33.24,9.72,44.26-20.59,50-14.94,2.81-10.84-15.51,2.07-16.37l2.3-2.3c-4.27-5-4.21-11.28,0-16.37l-2.3-2.3a12.54,12.54,0,0,1-16.7-.34l-2.29,2.31c5.79,18.63-29.15,18.16-24.59.33l-2.61-2.64c-5.07,4.46-11.31,4.46-16.38,0l-2.3,2.31c4.38,5.17,4.22,11.55-.32,16.7l2.62,2.62c18.22-6,18.63,30.27,0,24.24l-2.62,2.62c4.54,5.15,4.7,11.54.32,16.72l2.3,2.3c5.07-4.45,11.31-4.45,16.38,0l2.61-2.63c.86-25.38,22.26-3.58,16.07,21.76-4.17,17.05-16.4,30.5-16.07,7.74l-2.27-2.3c-5.14,4.54-11.53,4.71-16.72.33l-2.3,2.29c4.46,5.07,4.46,11.31,0,16.38l2.3,2.29c17.88-4.79,18.84,30.73,0,24.9l-2.3,2.3c4.38,5.18,4.22,11.57-.32,16.72l2.62,2.62c5.14-4.55,11.52-4.71,16.72-.34l2.27-2.28c-5.77-18.45,29.72-18.31,24.91,0l2.3,2.28q1.05-3.11,3.45-2.93c-3.8-6.06-1.22-11.41,5.63-15.42-14.53-22.92,10.43-14.65,23.45-23.45,31.18-21.08,57-80.05,92-92,13.76-4.7,48.07,6.76,44.53,31-2.75,18.84-41.09,19-21.32-.93v-3.69c-6.73-.44-11.13-4.85-11.58-11.58h-3.7c-.44,6.74-4.85,11.16-11.6,11.59l0,3.71c11.87,4.74,7.74,12.42-3.64,20.31,10.88,0,48.43-6.35,54.78,3.14,8.84,13.22,1.37,27.06-12.16,27.48,11.91,11.75,36.44,24.09,18.26,38.71,6.72,1.91,8.22,6.09,3.74,11.8l2.29,2.28c5-4.26,11.28-4.21,16.37,0l2.63-2.62c-4.23-5.09-4.28-11.38,0-16.38l-2.3-2.3c-49.66,1.15,85.93-55.94,50.23-20.8v3.25c6.56.51,11,5,11.58,11.58h3.72c.62-6.58,5-11.06,11.58-11.58V2731c-7.14-.68-9-4.71-5.72-11-23.18,2.5-14.55-23.59-14.43-40.31-9.88,9.28-24.95,4.79-28-10.83-2.22-11.19,28.84-33.21,36.51-40.93-13.26,2.41-21.5,0-16.93-11.8l-2.62-2.64c-5.07,4.46-11.32,4.46-16.4,0l-2.62,2.64c4.46,5.07,4.46,11.3,0,16.37l2.62,2.62c27.21-3.93,3.15,29.62-14.41,15.72-18.72-14.82-4.05-47,9.57-53.4,33.2-15.5,93.31,5.68,130.12,0,15.47-2.38,27.31-26.9,33.15,0,7.59-2,13.44-.16,14.89,6.91,1-1.21,2.55-1.32,4.51-.35v-3.24c-16.07-9.25,8.37-35.07,17.6-17.6h3.23c.58-6.78,5.21-11.18,12.06-11.6v-3.69Zm-782.58-782.12c-4.28-2.89-7-6.94-7.41-11.58h-3.26c-9.47,15.89-35-8.39-17.6-17.61l0-3.23c-6.78-.57-11.18-5.2-11.6-12.06H1720c-.43,6.86-4.83,11.49-11.6,12.06l0,3.23c15.91,16.49-5.65,17.14-22,.7-17.73-17.8-12-38.68,1.16-21.56h3.24c.51-6.54,5-11,11.58-11.59v-3.71c-6.58-.62-11.07-5-11.58-11.58h-3.24c-9,16.09-34-8.27-17.62-17.6V1688c-6.54-.51-11-5-11.58-11.58h-3.24a12.55,12.55,0,0,1-12,11.59v3.24c17.25,9.1-7.79,33.49-17.15,17.6h-3.71c-.43,6.75-4.84,11.16-11.58,11.58v3.71c6.73.45,11.14,4.86,11.58,11.58h3.72c7.63-9.64,23.13-3.38,14.63,7.6-21.16,27.36-33.09,0-51.71-18.48-23.57-23.41-38.2-24.45-20.76-49.91,8.6-12.56,18.6,3.34,10.1,13.06v3.25c6.55.51,11,5,11.58,11.58H1593a12.56,12.56,0,0,1,12-11.58V1688c-17.29-9.08,7.76-33.47,17.14-17.62h3.72c.44-6.74,4.84-11.14,11.58-11.58v-3.24c-6.76-.56-11.16-5.19-11.59-12h-3.71c-8.64,17.11-34.58-8.24-17.14-17.15v-3.71c-6.84-.42-11.47-4.81-12-11.58h-3.26c-.43,6.74-4.84,11.14-11.58,11.58l0,3.71c17.34,18.56-13.23,18.26-26.76-4-9.1-15-10-33.16,5.9-16.83h3.23c.42-6.85,4.82-11.47,11.59-12v-3.25c-6.74-.44-11.16-4.85-11.59-11.59h-3.23c-9.27,16-35-8.4-17.62-17.6v-3.25c-6.75-.57-11.15-5.2-11.59-12h-3.69c-.42,6.85-4.83,11.48-11.6,12.06V1561c17.16,9-8.06,33.94-17.6,17.6H1492c1,2,.86,3.46-.35,4.51,7,1.61,8.92,7.22,6.91,14.89,26.46,5.94,3,17.73,0,33.15-7.15,37,16.28,96.94,0,130.12-6.41,13-38.77,29.22-53.4,9.57-11.37-15.27,15.66-42.46,15.72-14.41l2.62,2.62c5.07-4.46,11.3-4.46,16.37,0l2.64-2.62c-4.46-5.08-4.46-11.33,0-16.4l-2.64-2.62c-11.75,5-14.27-3.31-11.8-16.93-7.72,7.67-29.73,38.72-40.93,36.51-15.69-3.1-20.11-18.22-10.77-28.1-14.32,0-28.65,2.58-40.35-4.25a58.29,58.29,0,0,0,0-10.15c-6.1,3.42-10.13,1.53-11-5.69h-3.23c-.52,6.55-5,11-11.58,11.58v3.72c6.59.61,11.07,5,11.58,11.58h3.25c34.3-36-21.19,100.46-20.8,50.23l-2.3-2.3c-5,4.28-11.29,4.23-16.38,0l-2.62,2.63c4.21,5.09,4.26,11.38,0,16.37l2.28,2.29c5.54-4.56,9.72-3,11.8,3.74,14.62-18.18,27,6.35,38.71,18.26.43-13.53,14.26-21,27.48-12.16,9.49,6.35,3.1,43.9,3.14,54.78,7.67-11.09,15.18-15.24,20.31-3.64l3.71,0c.43-6.75,4.85-11.16,11.59-11.6v-3.7c-6.73-.45-11.14-4.85-11.58-11.58h-3.69c-16.48,22-23.17-18.74-.93-21.32,23.71-2.75,36.12,30.39,31,44.53-12.51,34.43-70,62-92,92-9.26,12.63-.29,38.37-23.45,23.45-4,6.78-9.4,9.62-15.42,5.63q.18,2.4-2.93,3.45l2.28,2.3c17.91-4.82,18.86,30.7,0,24.91l-2.28,2.27c4.37,5.2,4.21,11.58-.34,16.72l2.62,2.62c5.15-4.54,11.54-4.7,16.72-.32l2.3-2.3c-5.81-18.42,29.68-18.29,24.9,0l2.29,2.3c5.07-4.46,11.31-4.46,16.38,0l2.29-2.3c-4.38-5.19-4.21-11.58.33-16.72l-2.3-2.27c-22.11,3.19-9.3-11.91,7.74-16.07,28.13-6.86,45.19,17.93,21.76,16.07l-2.63,2.61c4.45,5.07,4.45,11.31,0,16.38l2.3,2.3c5.18-4.38,11.57-4.22,16.72.32l2.62-2.62c-6-18.22,30.26-18.63,24.24,0l2.62,2.62c5.15-4.54,11.53-4.7,16.7-.32l2.31-2.3c-4.46-5.07-4.46-11.31,0-16.38l-2.64-2.61c-18.05,5.9-18.41-31.66.33-24.59l2.31-2.29a12.54,12.54,0,0,1-.34-16.7l-2.3-2.3c-5.09,4.21-11.38,4.27-16.37,0l-2.3,2.3c.74,10.84-13.93,20-16.37,5-5.63-34.58,25-23.56,50-23.48,34.66.12,42.55-9,49.64,20.59,3.11,13-15.35,12.69-15.72-2.07l-2.64-2.62c-5.07,4.44-11.3,4.44-16.38,0l-2.61,2.62c4.46,5.06,4.46,11.29,0,16.37l2.61,2.62c18-5.94,18.42,31.63-.32,24.59l-2.29,2.27a12.54,12.54,0,0,1,.32,16.72l2.29,2.3c5.1-4.22,11.4-4.28,16.38,0l2.31-2.3c-5-17.75,29.86-18.15,24.89,0l2.3,2.3c5-4.27,11.28-4.22,16.38,0l2.62-2.62c-4.22-5.1-4.28-11.4,0-16.4l-2.29-2.27c-23.08.21-9.31-16.06,14.57-16.23,24.77-.19,36.58,18.25,14.91,16.23l-2.28,2.27c4.38,5.19,4.22,11.57-.32,16.72l2.6,2.62c5.15-4.54,11.54-4.7,16.72-.32l2.29-2.3c-5.76-18.38,29.46-18.37,24.9,0l2.3,2.3c5.09-4.22,11.39-4.27,16.38,0l2.29-2.3c-4.28-5-4.22-11.29,0-16.38l-2.29-2.29c-18,4.53-18.81-30.72,0-24.91l2.29-2.29c-4.38-5.18-4.22-11.56.32-16.7l-2.61-2.62c-5.15,4.54-11.53,4.7-16.72.32l-2.28,2.3c-.41,22.91-16.1,8.11-16.06-15.09.06-25.12,18.89-35.8,16.06-14.41l2.28,2.3c5-4.28,11.29-4.22,16.39,0l2.62-2.62c-4.22-5.1-4.28-11.4,0-16.39l-2.29-2.3c-18.73,4.58-42.75-37.75-62.59-46.19l-2.6,2.62c4.44,5.08,4.44,11.31,0,16.37l2.6,2.64c23.57.53,7.42,25.26-11.51,15.72-14.62-7.36-12.87-48.47,3-53.41-10.6-14.57,22.06-44.35,35.67-39.88,21.3,7,11.73,37.84-3,19.28h-3.72c-.44,6.73-4.85,11.14-11.58,11.58v3.7c20,8.33,66.88-5,76.92,11.58h3.24c.51-6.54,5-11,11.58-11.58v-3.7c-6.58-.62-11.07-5-11.58-11.58h-3.24c-16.16,16.47-17.93-4.77-1.16-21.78,17.38-17.64,38.77-12.94,22,.92l0,3.24c6.77.56,11.17,5.19,11.6,12h3.7c.43-6.86,4.83-11.48,11.6-12l0-3.24c-17.08-8.9,7.85-33.83,17.6-17.6h3.26c.62-6.58,5-11.07,11.58-11.58v-3.26Zm999,293.36c3.43-.81,6.17.09,8.21,2.94l2.28-2.27c-4.37-5.2-4.21-11.58.34-16.72l-2.62-2.62c-5.15,4.54-11.54,4.7-16.72.32l-2.3,2.3c5.81,18.42-29.68,18.29-24.9,0l-2.29-2.3c-5.07,4.46-11.31,4.46-16.38,0l-2.29,2.3c4.38,5.19,4.21,11.58-.33,16.72l2.3,2.27c22.11-3.19,9.3,11.91-7.74,16.07-28.13,6.86-45.19-17.93-21.76-16.07l2.63-2.61c-4.45-5.07-4.45-11.31,0-16.38l-2.3-2.3c-5.18,4.38-11.57,4.22-16.72-.32l-2.62,2.62c6,18.22-30.26,18.63-24.24,0l-2.62-2.62c-5.15,4.54-11.53,4.7-16.7.32l-2.31,2.3c4.46,5.07,4.46,11.31,0,16.38l2.64,2.61c18.05-5.9,18.41,31.66-.33,24.59l-2.31,2.29a12.54,12.54,0,0,1,.34,16.7l2.3,2.3c5.09-4.21,11.38-4.27,16.37,0l2.3-2.3c-.74-10.84,13.93-20,16.37-5,5.63,34.58-25,23.56-50,23.48-34.66-.12-42.55,9-49.64-20.59-3.11-13,15.35-12.69,15.72,2.07l2.64,2.62c5.07-4.44,11.3-4.44,16.38,0l2.61-2.62c-4.46-5.06-4.46-11.29,0-16.37l-2.61-2.62c-18.05,5.94-18.42-31.63.32-24.59l2.29-2.27a12.54,12.54,0,0,1-.32-16.72l-2.29-2.3c-5.1,4.22-11.4,4.28-16.38,0l-2.31,2.3c5,17.75-29.86,18.15-24.89,0l-2.3-2.3c-5,4.27-11.28,4.22-16.38,0l-2.61,2.62c4.21,5.1,4.27,11.4,0,16.4l2.28,2.27c23.08-.21,9.31,16.06-14.57,16.23-24.77.19-36.58-18.25-14.91-16.23l2.28-2.27c-4.38-5.19-4.22-11.57.32-16.72l-2.6-2.62c-5.15,4.54-11.54,4.7-16.72.32l-2.29,2.3c5.76,18.38-29.46,18.37-24.9,0l-2.3-2.3c-5.09,4.22-11.39,4.27-16.38,0l-2.29,2.3c4.28,5,4.22,11.29,0,16.38l2.29,2.29c18-4.53,18.81,30.72,0,24.91l-2.29,2.29c4.38,5.18,4.22,11.56-.32,16.7l2.61,2.62c5.15-4.54,11.53-4.7,16.72-.32l2.28-2.3c.41-22.91,16.1-8.11,16.06,15.09-.06,25.12-18.89,35.8-16.06,14.41l-2.28-2.3c-5,4.28-11.29,4.22-16.39,0l-2.62,2.62c4.22,5.1,4.28,11.4,0,16.39l2.29,2.3c18.73-4.58,42.75,37.75,62.59,46.19l2.6-2.62c-4.44-5.08-4.44-11.31,0-16.37l-2.6-2.64c-23.56-.54-7.43-25.26,11.51-15.72,14.62,7.36,12.87,48.47-3,53.41,10.6,14.57-22.06,44.36-35.67,39.88-21.3-7-11.73-37.84,3-19.28h3.72c.44-6.73,4.85-11.14,11.58-11.58v-3.7c-20-8.33-66.88,5-76.92-11.58h-3.24c-.51,6.55-5,11-11.6,11.58l0,3.7c6.58.62,11.07,5,11.58,11.58h3.24c16.16-16.47,17.93,4.77,1.16,21.78-17.38,17.64-38.77,12.94-22-.92l0-3.24c-6.77-.56-11.17-5.19-11.6-12.05h-3.7c-.43,6.86-4.83,11.48-11.6,12.05l0,3.24c17.08,8.9-7.85,33.83-17.6,17.6h-3.26c-.62,6.58-5,11.07-11.58,11.58v3.26c6.55.51,11,5,11.58,11.58h3.26c9.47-15.89,35,8.39,17.6,17.61l0,3.23c6.78.57,11.18,5.2,11.6,12.06h3.7c.43-6.86,4.83-11.49,11.6-12.06l0-3.23c-15.92-16.49,5.64-17.13,22-.7,17.73,17.8,12,38.68-1.16,21.56h-3.24c-.51,6.54-5,11-11.58,11.59v3.71c6.58.62,11.07,5,11.58,11.58h3.24c9-16.09,34,8.27,17.62,17.6V2408c6.54.51,10.95,5,11.58,11.58h3.24a12.55,12.55,0,0,1,12-11.59v-3.24c-17.25-9.1,7.79-33.49,17.15-17.6h3.71c.43-6.75,4.84-11.16,11.58-11.58v-3.71c-6.73-.45-11.14-4.86-11.58-11.58h-3.72c-7.63,9.64-23.13,3.38-14.63-7.6,21.16-27.36,33.09,0,51.71,18.48,23.57,23.41,38.2,24.45,20.76,49.91-8.6,12.56-18.6-3.34-10.1-13.06v-3.25c-6.55-.51-11-5-11.58-11.58H2503a12.56,12.56,0,0,1-12,11.58V2408c17.29,9.08-7.76,33.47-17.14,17.62h-3.72c-.44,6.74-4.84,11.14-11.58,11.58v3.24c6.76.56,11.16,5.19,11.59,12h3.71c8.64-17.11,34.58,8.24,17.14,17.15v3.71c6.84.42,11.47,4.81,12,11.58h3.26c.43-6.74,4.84-11.14,11.58-11.58l0-3.71c-17.34-18.56,13.23-18.26,26.76,4,9.1,15,10,33.16-5.9,16.83h-3.23c-.42,6.85-4.82,11.47-11.59,12v3.25c6.74.44,11.16,4.85,11.59,11.59h3.23c9.27-16,35,8.4,17.62,17.6v3.25c6.76.57,11.15,5.2,11.59,12.05h3.69c.42-6.85,4.82-11.48,11.6-12.06V2535c-17.16-8.95,8.06-33.94,17.6-17.6H2604c-1-2-.86-3.46.35-4.51-7-1.61-8.92-7.22-6.91-14.89-26.46-5.94-3-17.73,0-33.15,7.15-37-16.28-96.94,0-130.12,6.41-13,38.77-29.22,53.4-9.57,11.37,15.27-15.66,42.46-15.72,14.41l-2.62-2.62c-5.07,4.46-11.3,4.46-16.37,0l-2.64,2.62c4.46,5.08,4.46,11.33,0,16.4l2.64,2.62c11.75-5,14.27,3.31,11.8,16.93,7.72-7.67,29.73-38.72,40.93-36.51,15.69,3.1,20.11,18.22,10.77,28.1,14.32,0,28.65-2.58,40.35,4.25a58.29,58.29,0,0,0,0,10.15c6.1-3.42,10.13-1.53,11,5.69h3.23c.52-6.55,5-11,11.58-11.58v-3.72c-6.59-.61-11.07-5-11.58-11.58H2731c-34.3,36.05,21.19-100.46,20.8-50.23l2.3,2.3c5-4.28,11.29-4.23,16.38,0l2.62-2.63c-4.21-5.09-4.26-11.38,0-16.37l-2.28-2.29c-5.54,4.56-9.72,3-11.8-3.74-14.62,18.18-27-6.35-38.71-18.26-.42,13.53-14.26,21-27.48,12.16-9.49-6.35-3.1-43.9-3.14-54.78-7.67,11.09-15.18,15.24-20.31,3.64l-3.71,0c-.43,6.75-4.85,11.16-11.59,11.6v3.7c6.73.45,11.14,4.85,11.58,11.58h3.69c16.48-22,23.17,18.74.93,21.32-23.71,2.75-36.12-30.39-31-44.53,12.51-34.43,70-62,92-92,9.26-12.63.29-38.37,23.45-23.45,4-6.78,9.4-9.62,15.42-5.63q-.18-2.4,2.93-3.45l-2.28-2.3C2754.79,2111.21,2754.48,2091.45,2762.56,2079.09Zm305.26-32.94c-4.75-2.7-7.62-6.68-7.88-11.58l-3.24,0c-8.93,17.16-33.93-8-17.62-17.6v-3.23c-6.72-.46-11.13-4.87-11.58-11.59h-3.24c-.56,6.76-5.19,11.16-12,11.58V2017c17.91,13.36-1.84,15-16.83,5.9-24.76-15-19.27-44.64-4-26.76l3.71,0c.44-6.75,4.85-11.16,11.59-11.6v-3.24c-6.77-.57-11.16-5.19-11.58-12h-3.71c-8.65,17.13-34.57-8.23-17.14-17.15v-3.71c-6.85-.41-11.47-4.81-12-11.58h-3.25c-.44,6.74-4.85,11.15-11.59,11.58v3.72c17,8.56-9.35,35.41-17.6,17.14h-3.25a12.55,12.55,0,0,1-11.58,12v3.24c6.56.63,11,5,11.58,11.58l3.24,0c7.15-8.2,24-4.29,15.1,8.06-20.46,28.46-34.35-1-52-18.73-24.42-24.6-36.47-23.72-20.53-49.66,7-11.35,19.86,1.87,9.64,12.59l0,3.72c6.74.43,11.15,4.84,11.58,11.58h3.69c.44-6.74,4.85-11.15,11.59-11.59v-3.71c-17-8.57,9.37-35.38,17.61-17.14h3.25a12.53,12.53,0,0,1,11.58-12V1916c-6.57-.63-11.06-5-11.58-11.58l-3.24,0c-9,16.06-33.95-8.27-17.62-17.6v-3.24c-6.54-.51-11-5-11.59-11.58h-3.69c-.63,6.58-5,11.07-11.58,11.58v3.24c16.47,16.15-4.78,17.93-21.79,1.17-17.65-17.4-12.92-38.77.92-22h3.25c.57-6.76,5.2-11.16,12-11.59v-3.69c-6.84-.42-11.47-4.82-12.06-11.58h-3.23c-8.95,17.07-33.83-7.85-17.6-17.62v-3.24c-6.58-.62-11.07-5-11.58-11.58h-3.25c-.5,6.55-5,11-11.59,11.59v3.24c15.9,9.5-8.42,35-17.61,17.62h-3.24c-8,9.11-8,17.75,0,26.86h3.23c4.45-4.59,17.38-13.14,16.67,4.53-.79,19.76-28.71,24.6-27.09,52.94.55,9.73,10.77,18.47,10.88,24.08.16,8.31-10.88,11.19-10.88,17.37q-.06,41.6,0,83.19c0,27.41-1.09,55.05,0,82.44.28,7.15,10.92,8.66,10.88,16.72,0,7.36-11,10.72-10.88,20.83.11,11.09-1.7,22.48,2.81,31.8,3.92,8.09,23,15.6,24.28,24.28,2.72,18-11.64,11.39-16.67,6h-3.23c-8,9.11-8,17.75,0,26.86h3.24c8.91-17.08,33.82,7.84,17.61,17.62v3.24c6.6.63,11.09,5,11.59,11.59H2832c.51-6.55,5-11,11.58-11.58v-3.24c-15.92-9.49,8.38-35,17.6-17.62h3.23c.59-6.76,5.22-11.16,12.06-11.58v-3.69c-6.85-.43-11.48-4.83-12-11.59h-3.25c-16.52,15.75-17.93-5.26-.92-22,17.82-17.55,39.07-12.07,21.79,1.17l0,3.24c6.56.5,11,5,11.6,11.58h3.69c.63-6.58,5.05-11.07,11.59-11.58v-3.24c-16.05-9,8.3-33.93,17.62-17.6l3.24,0c.52-6.54,5-11,11.58-11.58v-3.24a12.53,12.53,0,0,1-11.58-12h-3.25c-9.07,17.26-33.46-7.78-17.61-17.14v-3.71c-6.74-.44-11.15-4.85-11.59-11.59h-3.69c-.43,6.74-4.84,11.15-11.58,11.58l0,3.72c9.69,7.66,3.37,23.13-7.6,14.63-27.34-21.16,0-33.07,18.49-51.7,23.41-23.58,24.44-38.21,49.91-20.77,12.55,8.59-3.32,18.62-13.06,10.1l-3.24,0c-.53,6.53-5,11-11.58,11.58v3.24a12.55,12.55,0,0,1,11.58,12h3.25c9.08-17.28,33.46,7.78,17.6,17.14v3.72c6.74.43,11.15,4.84,11.59,11.58h3.25c.58-6.77,5.2-11.17,12-11.58v-3.71c-17.13-8.65,8.22-34.59,17.14-17.15h3.71c.42-6.85,4.81-11.47,11.58-12v-3.24c-6.74-.44-11.15-4.85-11.59-11.6l-3.71,0c-18.55,17.34-18.28-13.22,4-26.76,15-9.1,33.19-10,16.83,5.9v3.24c6.85.42,11.48,4.82,12,11.58h3.24c.45-6.72,4.86-11.13,11.58-11.59v-3.23c-16-9.27,8.41-35.07,17.62-17.6l3.24,0c.57-6.77,5.2-11.16,12.06-11.58v-3.7ZM2770.43,2030c-1.43-5.26-.65-10.11,2.62-13.77l-2.28-2.27c-18.45,5.77-18.31-29.72,0-24.91l2.28-2.3q-3.11-1-2.93-3.45c-6.06,3.8-11.41,1.22-15.42-5.63-22.92,14.53-14.65-10.43-23.45-23.45-21.08-31.18-80.05-57-92-92-4.7-13.76,6.76-48.07,31-44.53,18.84,2.75,19,41.09-.93,21.32l-3.69,0c-.43,6.74-4.84,11.15-11.58,11.6v3.7c6.74.44,11.16,4.85,11.59,11.6l3.71,0c4.75-11.87,12.43-7.74,20.31,3.64,0-10.89-6.35-48.43,3.14-54.78,13.28-8.89,27.1-1.33,27.48,12.25,10.13-10.12,18.43-22.09,31.54-25.5a57.13,57.13,0,0,0,7.17,7.17c1.9-6.73,6.08-8.25,11.8-3.76l2.28-2.29c-4.26-5-4.21-11.28,0-16.37l-2.62-2.63c-5.09,4.23-11.38,4.28-16.38,0l-2.3,2.3c1.24,49.88-56-86.15-20.8-50.23h3.25c.51-6.56,5-11,11.58-11.58v-3.72c-6.58-.62-11.06-5-11.58-11.58H2731c-.7,7.16-4.73,9-11,5.69a58.29,58.29,0,0,0,0,10.15c-11.85,6.6-25.8,4.25-40.35,4.25,9.34,9.88,4.92,25-10.77,28.1-11.2,2.21-33.21-28.84-40.93-36.51,2.41,13.26,0,21.5-11.8,16.93l-2.64,2.62c4.46,5.07,4.46,11.32,0,16.4l2.64,2.62c5.07-4.46,11.3-4.46,16.37,0l2.62-2.62c-3.93-27.21,29.62-3.15,15.72,14.41-14.82,18.72-47,4.05-53.4-9.57-15.5-33.2,5.68-93.31,0-130.12-2.38-15.47-26.9-27.31,0-33.15-2-7.6-.16-13.44,6.91-14.89-1.21-1-1.32-2.55-.35-4.51h-3.24c-9.25,16.06-35.07-8.37-17.6-17.6v-3.23c-6.78-.58-11.18-5.21-11.6-12.06h-3.69c-.44,6.85-4.83,11.48-11.59,12V1561c17.12,8.92-8.06,33.92-17.62,17.6h-3.23c-.43,6.74-4.85,11.15-11.59,11.59v3.25c6.77.58,11.17,5.2,11.59,12h3.23c13.38-17.89,15,1.84,5.9,16.83-15,24.73-44.64,19.29-26.76,4l0-3.71c-6.74-.44-11.15-4.84-11.58-11.58H2503c-.57,6.77-5.2,11.16-12,11.58v3.71c17.14,8.64-8.23,34.56-17.14,17.15h-3.71c-.43,6.85-4.83,11.48-11.59,12v3.24c6.74.44,11.14,4.84,11.58,11.58h3.72c8.59-16.95,35.42,9.37,17.14,17.62v3.24a12.56,12.56,0,0,1,12,11.58h3.26c.62-6.58,5-11.07,11.58-11.58V1688c-8.18-7.14-4.29-24,8.06-15.1,28.46,20.46-1,34.35-18.72,52-24.58,24.4-23.73,36.5-49.67,20.52-11.38-7,1.9-19.8,12.59-9.64h3.72c.44-6.72,4.85-11.13,11.58-11.58v-3.71c-6.74-.42-11.15-4.83-11.58-11.58h-3.71c-8.56,17-35.39-9.33-17.15-17.6V1688a12.55,12.55,0,0,1-12-11.59h-3.24c-.63,6.58-5,11.07-11.58,11.58v3.25c16,9-8.3,34-17.62,17.6h-3.24c-.51,6.55-5,11-11.58,11.58v3.71c6.58.63,11.07,5.05,11.58,11.59h3.24c16.17-16.45,17.92,4.79,1.16,21.79-17.38,17.65-38.78,12.94-22-.93l0-3.23c-6.77-.57-11.17-5.2-11.6-12.06h-3.7c-.42,6.86-4.82,11.49-11.6,12.06l0,3.23c17.08,8.94-7.85,33.81-17.6,17.61h-3.26c-.62,6.59-5,11.07-11.58,11.58V1789c6.55.51,11,5,11.58,11.58h3.26c9.48-15.92,35,8.42,17.6,17.6l0,3.24c6.77.57,11.17,5.19,11.6,12h3.7c.43-6.86,4.83-11.49,11.6-12l0-3.24c-15.92-16.48,5.65-17.11,22-.69,17.75,17.81,12,38.68-1.16,21.55h-3.24c-.51,6.55-5,11-11.58,11.58l0,3.7c6.59.62,11.09,5,11.6,11.58h3.24c10-16.47,56.92-3.52,76.92-11.58v-3.7c-6.73-.44-11.14-4.85-11.58-11.58h-3.72c-17,16.26-23.11-12.65-3-19.28,15.53-5.12,43.38,25.17,35.67,39.88,17.79,2.81,15.77,47,3,53.41-20,10.09-35-18.47-11.51-15.72l2.6-2.64c-4.44-5.06-4.44-11.29,0-16.37l-2.6-2.62c-20.07,8.28-43.75,50.86-62.59,46.19l-2.29,2.3c4.28,5,4.22,11.29,0,16.39l2.62,2.62c5.1-4.22,11.39-4.28,16.39,0l2.28-2.3c-.22-22.88,16-9.57,16.06,14.41,0,22.77-15.69,38.22-16.06,15.09l-2.28-2.3c-5.19,4.38-11.57,4.22-16.72-.32l-2.61,2.62c4.54,5.14,4.7,11.52.32,16.7l2.29,2.29c18.39-5.79,18.38,29.47,0,24.91l-2.29,2.29c4.22,5.09,4.28,11.39,0,16.38l2.29,2.3c5-4.27,11.29-4.22,16.38,0l2.3-2.3c-4.54-18,30.68-18.8,24.9,0l2.29,2.3c5.18-4.38,11.57-4.22,16.72.32l2.6-2.62c-4.54-5.15-4.7-11.53-.32-16.72l-2.28-2.27c-22.86-.58-9-16.41,14.91-16.23,25,.18,36.18,19.07,14.57,16.23l-2.28,2.27c4.27,5,4.21,11.3,0,16.4l2.61,2.62c5.1-4.22,11.39-4.27,16.38,0l2.3-2.3c-5-17.75,29.86-18.15,24.89,0l2.31,2.3c5-4.28,11.28-4.22,16.38,0l2.29-2.3a12.54,12.54,0,0,1,.32-16.72l-2.29-2.27c-18.63,5.75-18.16-29.19-.32-24.59l2.61-2.62c-4.46-5.08-4.46-11.31,0-16.37l-2.61-2.62c-5.08,4.44-11.31,4.44-16.38,0l-2.64,2.62c1.42,12.22-14,18.75-15.72,5-4.33-34.29,23.37-23.39,49.64-23.48,33.24-.11,44.26-9.72,50,20.59,2.81,14.94-15.51,10.84-16.37-2.07l-2.3-2.3c-5,4.27-11.28,4.21-16.37,0l-2.3,2.3a12.54,12.54,0,0,1-.34,16.7l2.31,2.29c18.63-5.78,18.16,29.15.33,24.59l-2.64,2.61c4.46,5.07,4.46,11.31,0,16.38l2.31,2.3c5.17-4.38,11.55-4.22,16.7.32l2.62-2.62c-6-18.22,30.27-18.63,24.24,0l2.62,2.62c5.15-4.54,11.54-4.7,16.72-.32l2.3-2.3c-4.45-5.07-4.45-11.31,0-16.38l-2.63-2.61c-25.38-.86-3.58-22.26,21.76-16.07,17.05,4.17,30.5,16.4,7.74,16.07l-2.3,2.27c4.54,5.14,4.71,11.53.33,16.72l2.29,2.3c5.07-4.46,11.31-4.46,16.38,0l2.29-2.3c-4.79-17.88,30.73-18.84,24.9,0l2.3,2.3c5.18-4.38,11.57-4.22,16.72.32l2.62-2.62Zm-481-766c-6.55-.51-11-5-11.58-11.58h-3.24c-9.49,15.92-35-8.37-17.62-17.6v-3.23c-6.76-.59-11.16-5.22-11.58-12.06h-3.69c-.43,6.85-4.83,11.48-11.59,12v3.25c15.75,16.52-5.26,17.93-22,.92-17.55-17.82-12.07-39.07,1.17-21.79h3.24c.51-6.54,5-11,11.58-11.58v-3.69c-6.58-.63-11.07-5-11.58-11.59h-3.24c-9,16.05-33.93-8.3-17.6-17.62l0-3.24c-6.54-.52-11-5-11.58-11.58h-3.24a12.53,12.53,0,0,1-12,11.58v3.25c17.26,9.07-7.78,33.46-17.14,17.61h-3.71c-.43,6.74-4.85,11.15-11.59,11.59v3.69c6.74.43,11.15,4.84,11.58,11.58l3.72,0c7.66-9.69,23.13-3.37,14.63,7.6-21.16,27.34-33.07,0-51.7-18.49-23.58-23.41-38.21-24.44-20.77-49.91,8.59-12.55,18.62,3.32,10.1,13.06l0,3.24c6.53.53,11,5,11.58,11.58h3.24a12.55,12.55,0,0,1,12-11.58v-3.25c-17.28-9.08,7.78-33.46,17.14-17.6h3.72c.43-6.74,4.84-11.15,11.58-11.59v-3.25c-6.77-.58-11.17-5.2-11.58-12h-3.71c-8.65,17.13-34.59-8.22-17.15-17.14v-3.71c-6.85-.42-11.47-4.81-12-11.58h-3.24c-.44,6.74-4.85,11.15-11.6,11.59l0,3.71c17.34,18.55-13.22,18.28-26.76-4-9.1-15-10-33.19,5.9-16.83h3.24c.42-6.85,4.82-11.48,11.58-12v-3.24c-6.72-.45-11.13-4.86-11.59-11.58h-3.23c-9.27,16-35.07-8.41-17.6-17.62l0-3.24c-6.77-.57-11.16-5.2-11.58-12.06h-3.7c-.42,6.86-4.81,11.49-11.58,12.06l0,3.24c17.16,8.93-8,33.93-17.6,17.62h-3.23c-.46,6.72-4.87,11.13-11.59,11.58v3.24c6.76.56,11.16,5.19,11.58,12H2017c13.36-17.91,15,1.84,5.9,16.83-15,24.76-44.64,19.27-26.76,4l0-3.71c-6.75-.44-11.16-4.85-11.6-11.59h-3.24c-.57,6.77-5.19,11.16-12,11.58v3.71c17.13,8.65-8.23,34.57-17.15,17.14h-3.71c-.41,6.85-4.81,11.47-11.58,12v3.25c6.74.44,11.15,4.85,11.58,11.59h3.72c8.56-17,35.41,9.35,17.14,17.6v3.25a12.55,12.55,0,0,1,12,11.58h3.24c.63-6.56,5-11,11.58-11.58l0-3.24c-8.2-7.15-4.29-24,8.06-15.1,28.46,20.46-1,34.35-18.73,51.95-24.6,24.42-23.72,36.47-49.66,20.53-11.35-7,1.87-19.86,12.59-9.64l3.72,0c.43-6.74,4.84-11.15,11.58-11.58v-3.69c-6.74-.44-11.15-4.85-11.59-11.59h-3.71c-8.57,17-35.38-9.37-17.14-17.61v-3.25a12.53,12.53,0,0,1-12-11.58H1916c-.63,6.57-5,11.06-11.58,11.58l0,3.24c16.06,9-8.27,34-17.6,17.62h-3.24c-.51,6.54-5,11-11.58,11.59v3.69c6.58.63,11.07,5,11.58,11.58h3.24c16.15-16.47,17.93,4.78,1.17,21.79-17.4,17.65-38.77,12.92-22-.92v-3.25c-6.76-.57-11.16-5.2-11.59-12h-3.69c-.42,6.84-4.82,11.47-11.58,12.06v3.23c17.07,9-7.85,33.83-17.62,17.6h-3.24c-.62,6.58-5,11.07-11.58,11.58v3.25c6.55.5,11,5,11.59,11.59h3.24c9.5-15.9,35,8.42,17.62,17.61v3.24c9.11,8,17.75,8,26.86,0v-3.23c-4.59-4.45-13.14-17.38,4.53-16.67,19.76.79,24.6,28.71,52.94,27.09,9.73-.55,18.47-10.77,24.08-10.88,8.31-.16,11.19,10.88,17.37,10.88q41.6.06,83.19,0c27.41,0,55.05,1.09,82.44,0,7.15-.28,8.66-10.92,16.72-10.88,7.36,0,10.72,11,20.83,10.88,11.09-.11,22.48,1.7,31.8-2.81,8.09-3.92,15.6-23,24.28-24.28,18-2.72,11.39,11.64,6,16.67v3.23c9.11,8,17.75,8,26.86,0v-3.24c-17.08-8.91,7.84-33.82,17.62-17.61h3.24c.63-6.6,5-11.09,11.59-11.59Zm-264.32,169.34a7.49,7.49,0,0,1,7.87,3.28l2.62-2.62c-4.54-5.15-4.7-11.54-.32-16.72l-2.3-2.3c-5.07,4.45-11.31,4.45-16.38,0l-2.61,2.63c-.86,25.38-22.26,3.58-16.07-21.76,4.17-17.05,16.4-30.5,16.07-7.74l2.27,2.3c5.14-4.54,11.53-4.71,16.72-.33l2.3-2.29c-4.46-5.07-4.46-11.31,0-16.38l-2.3-2.29c-17.88,4.79-18.84-30.73,0-24.9l2.3-2.3c-4.38-5.18-4.22-11.57.32-16.72l-2.62-2.62c-5.14,4.55-11.52,4.71-16.72.34l-2.27,2.28c5.77,18.45-29.72,18.31-24.91,0l-2.3-2.28q-1,3.1-3.45,2.93c3.8,6.06,1.22,11.41-5.63,15.42,14.53,22.92-10.43,14.65-23.45,23.45-31.18,21.08-57,80-92,92-13.76,4.7-48.07-6.76-44.53-31,2.75-18.84,41.09-19,21.32.93v3.69c6.73.44,11.13,4.85,11.58,11.58h3.7c.44-6.74,4.85-11.16,11.6-11.59l0-3.71c-11.87-4.74-7.74-12.42,3.64-20.31-10.88,0-48.43,6.35-54.78-3.14-8.84-13.22-1.37-27,12.16-27.48-11.91-11.75-36.44-24.09-18.26-38.71-6.72-1.91-8.22-6.09-3.74-11.8l-2.29-2.28c-5,4.26-11.28,4.21-16.37,0l-2.63,2.62c4.23,5.09,4.28,11.38,0,16.38l2.3,2.3c49.66-1.15-85.93,55.94-50.23,20.8v-3.25c-6.56-.51-11-5-11.58-11.58h-3.72c-.62,6.58-5,11.06-11.58,11.58V1365c7.14.68,9,4.71,5.72,11,23.18-2.5,14.55,23.59,14.43,40.31,9.88-9.28,25-4.79,28,10.83,2.22,11.19-28.84,33.21-36.51,40.93,13.26-2.41,21.5,0,16.93,11.8l2.62,2.64c5.07-4.46,11.32-4.46,16.4,0l2.62-2.64c-4.46-5.07-4.46-11.3,0-16.37l-2.62-2.62c-27.21,3.93-3.15-29.62,14.41-15.72,18.72,14.82,4.05,47-9.57,53.4-33.2,15.5-93.31-5.68-130.12,0-15.47,2.38-27.31,26.9-33.15,0-7.59,2-13.44.16-14.89-6.91-1,1.21-2.55,1.32-4.51.35v3.24c16.06,9.25-8.37,35.07-17.6,17.6h-3.23c-.58,6.77-5.21,11.18-12.06,11.6v3.69c6.85.44,11.48,4.84,12,11.59H1561c8.92-17.12,33.92,8.06,17.6,17.62v3.23c6.74.43,11.15,4.85,11.59,11.59h3.25c.58-6.77,5.2-11.17,12-11.59v-3.23c-17.89-13.38,1.84-15,16.83-5.9,24.73,15,19.3,44.64,4,26.76l-3.71,0c-.44,6.74-4.84,11.15-11.58,11.58V1593c6.77.57,11.16,5.2,11.58,12h3.71c8.64-17.14,34.56,8.23,17.15,17.14v3.71c6.85.43,11.48,4.83,12,11.59h3.24c.44-6.74,4.84-11.14,11.58-11.58v-3.72c-16.95-8.59,9.37-35.42,17.62-17.14h3.24a12.56,12.56,0,0,1,11.58-12v-3.26c-6.59-.61-11.08-5-11.58-11.58H1688c-7.14,8.18-24,4.29-15.1-8.06,20.46-28.46,34.35,1,52,18.72,24.4,24.58,36.5,23.73,20.52,49.67-7,11.38-19.8-1.9-9.64-12.59v-3.72c-6.72-.44-11.13-4.85-11.58-11.58h-3.71c-.42,6.74-4.83,11.15-11.58,11.58v3.71c17,8.56-9.33,35.39-17.6,17.15H1688a12.55,12.55,0,0,1-11.59,12v3.24c6.58.63,11.07,5,11.58,11.58h3.25c9-16,34,8.3,17.6,17.62v3.24c6.55.51,11,5,11.58,11.58h3.71c.63-6.58,5.05-11.07,11.59-11.58v-3.24c-16.32-16,4.57-18.09,21.56-1.16,16.13,16.07,15.92,38.12-.7,22l-3.23,0c-.57,6.77-5.2,11.17-12.06,11.6v3.7c6.86.42,11.49,4.82,12.06,11.6l3.23,0c8.94-17.08,33.81,7.85,17.61,17.6v3.26c6.59.62,11.07,5,11.58,11.58H1789c.51-6.55,5-11,11.58-11.58v-3.26c-15.92-9.48,8.42-35,17.6-17.6l3.24,0c.57-6.77,5.2-11.17,12-11.6V1720c-6.86-.43-11.49-4.83-12-11.6l-3.24,0c-16.55,15.76-17.91-5.28-.92-22,17.82-17.56,39.06-12.09,21.78,1.16v3.24c6.55.51,11,5,11.58,11.58h3.7c.63-6.58,5-11.07,11.58-11.58v-3.24c-16.47-10-3.52-56.92-11.58-76.92h-3.7c-.44,6.73-4.85,11.14-11.58,11.58v3.72c16.26,17-12.65,23.11-19.28,3-5.12-15.53,25.17-43.38,39.88-35.67,2.8-17.79,47-15.77,53.41-3,10.09,20-18.47,35-15.72,11.51l-2.64-2.6c-5.06,4.44-11.29,4.44-16.37,0l-2.62,2.6c8.28,20.07,50.86,43.75,46.19,62.59l2.3,2.29c5-4.28,11.29-4.22,16.39,0l2.62-2.62c-4.22-5.1-4.28-11.39,0-16.39l-2.3-2.28c-23.07.22-9.29-16,14.57-16.22,24.77-.19,36.58,18.26,14.93,16.22l-2.3,2.28c4.38,5.19,4.22,11.57-.32,16.72l2.62,2.61c5.14-4.54,11.52-4.7,16.7-.32l2.29-2.29c-5.79-18.39,29.47-18.38,24.91,0l2.29,2.29c5.09-4.22,11.39-4.28,16.38,0l2.3-2.29c-4.27-5-4.22-11.29,0-16.38l-2.3-2.3c-18,4.54-18.8-30.68,0-24.9l2.3-2.29c-4.38-5.18-4.22-11.57.32-16.72l-2.62-2.6c-5.15,4.54-11.53,4.7-16.72.32l-2.27,2.28c-.42,22.92-16.11,8.12-16.07-15.07,0-25.13,18.89-35.82,16.07-14.41l2.27,2.29c5-4.28,11.3-4.22,16.4,0l2.62-2.62c-4.22-5.1-4.27-11.39,0-16.38l-2.3-2.3c-17.75,5-18.15-29.86,0-24.89l2.3-2.31c-4.28-5-4.22-11.28,0-16.38l-2.3-2.29a12.54,12.54,0,0,1-16.72-.32l-2.27,2.29c5.75,18.63-29.19,18.16-24.59.32l-2.62-2.61c-5.08,4.46-11.31,4.46-16.37,0l-2.62,2.61c4.44,5.08,4.44,11.31,0,16.38l2.62,2.64c12.22-1.42,18.75,14,5,15.72-34.29,4.33-23.39-23.37-23.48-49.64-.11-33.24-9.72-44.26,20.59-50,14.94-2.81,10.84,15.51-2.07,16.37l-2.3,2.3c4.27,5,4.21,11.28,0,16.37l2.3,2.3a12.54,12.54,0,0,1,16.7.34l2.29-2.31c-5.78-18.63,29.15-18.16,24.59-.33l2.61,2.64c5.07-4.46,11.31-4.46,16.38,0l2.3-2.31c-4.38-5.17-4.22-11.55.32-16.7l-2.62-2.62C2016.46,1466.29,2016.88,1445.34,2025.09,1433.37Zm521,91.08c-4.73-2.71-7.59-6.69-7.87-11.6H2535c-8.95,17.16-33.94-8.06-17.6-17.6V1492c-2,1-3.46.86-4.51-.35-1.61,6.95-7.22,8.92-14.89,6.91-5.94,26.46-17.73,3-33.15,0-37-7.15-96.94,16.28-130.12,0-13-6.41-29.22-38.77-9.57-53.4,15.27-11.37,42.46,15.66,14.41,15.72l-2.62,2.62c4.46,5.07,4.46,11.3,0,16.37l2.62,2.64c5.08-4.46,11.33-4.46,16.4,0l2.62-2.64c-5-11.75,3.31-14.27,16.93-11.8-7.67-7.72-38.73-29.74-36.51-40.93,3.09-15.62,18.16-20.11,28-10.83-.12-16.72-8.75-42.81,14.43-40.31-3.38-6.1-1.48-10.12,5.72-11v-3.23c-6.55-.52-11-5-11.58-11.58h-3.72c-.61,6.59-5,11.07-11.58,11.58v3.25c36,34.42-100.4-21.31-50.23-20.8l2.3-2.3c-4.28-5-4.23-11.29,0-16.38l-2.63-2.62c-5.09,4.21-11.38,4.26-16.37,0l-2.29,2.28c4.57,5.56,3,9.73-3.76,11.8a57.13,57.13,0,0,0,7.17,7.17c-3.69,13-15.21,21.24-25.5,31.54,13.58.38,21.14,14.2,12.25,27.48-6.35,9.49-43.89,3.1-54.78,3.14,11.08,7.67,15.24,15.18,3.64,20.31l0,3.71c6.75.43,11.16,4.85,11.6,11.59h3.7c.45-6.73,4.85-11.14,11.58-11.58v-3.69c-22-16.48,18.74-23.17,21.32-.93,2.75,23.71-30.39,36.12-44.53,31-34.43-12.51-62-70-92-92-12.63-9.26-38.37-.29-23.45-23.45-6.78-4-9.62-9.4-5.63-15.42q-2.4.18-3.45-2.93l-2.3,2.28c4.82,17.91-30.7,18.86-24.91,0l-2.27-2.28c-5.2,4.37-11.58,4.21-16.72-.34l-2.62,2.62c4.54,5.15,4.7,11.54.32,16.72l2.3,2.3c18.42-5.81,18.29,29.68,0,24.9l-2.3,2.29c4.46,5.07,4.46,11.31,0,16.38l2.3,2.29c5.19-4.38,11.58-4.21,16.72.33l2.27-2.3c-3.19-22.11,11.91-9.3,16.07,7.74,6.86,28.13-17.93,45.19-16.07,21.76l-2.61-2.63c-5.07,4.45-11.31,4.45-16.38,0l-2.3,2.3c4.38,5.18,4.22,11.57-.32,16.72l2.62,2.62c18.22-6,18.63,30.26,0,24.24l-2.62,2.62c4.54,5.15,4.7,11.53.32,16.7l2.3,2.31c5.07-4.46,11.31-4.46,16.38,0l2.61-2.64c-5.9-18.05,31.66-18.41,24.59.33l2.29,2.31a12.54,12.54,0,0,1,16.7-.34l2.3-2.3c-4.21-5.09-4.27-11.38,0-16.37l-2.3-2.3c-10.84.74-20-13.93-5-16.37,34.58-5.63,23.56,25,23.48,50-.12,34.66,9,42.55-20.59,49.64-13,3.11-12.69-15.35,2.07-15.72l2.62-2.64c-4.44-5.07-4.44-11.3,0-16.38l-2.62-2.61c-5.06,4.46-11.29,4.46-16.37,0l-2.62,2.61c5.94,18-31.63,18.42-24.59-.32l-2.27-2.29a12.54,12.54,0,0,1-16.72.32l-2.3,2.29c4.22,5.1,4.28,11.4,0,16.38l2.3,2.31c17.75-5,18.15,29.86,0,24.89l-2.3,2.3c4.28,5,4.22,11.28,0,16.38l2.62,2.62c5.1-4.22,11.4-4.28,16.4,0l2.27-2.29c-.21-22.89,16-9.59,16.07,14.41,0,22.76-15.69,38.2-16.07,15.07l-2.27-2.28c-5.19,4.38-11.57,4.22-16.72-.32l-2.62,2.6c4.54,5.15,4.7,11.54.32,16.72l2.3,2.29c18.38-5.76,18.37,29.46,0,24.9l-2.3,2.3c4.22,5.09,4.27,11.39,0,16.38l2.3,2.29c5-4.28,11.29-4.22,16.38,0l2.29-2.29c-4.53-18,30.72-18.81,24.91,0l2.29,2.29c5.18-4.38,11.56-4.22,16.7.32l2.62-2.61c-4.54-5.15-4.7-11.53-.32-16.72l-2.3-2.28c-22.85-.56-8.94-16.4,14.93-16.22,25,.19,36.15,19.07,14.57,16.22l-2.3,2.28c4.28,5,4.22,11.29,0,16.39l2.62,2.62c5.1-4.22,11.4-4.28,16.39,0l2.3-2.29c-4.58-18.73,37.75-42.75,46.19-62.59l-2.62-2.6c-5.08,4.44-11.31,4.44-16.37,0l-2.64,2.6c-.54,23.56-25.26,7.43-15.72-11.51,7.36-14.62,48.47-12.87,53.41,3,14.57-10.6,44.35,22.06,39.88,35.67-7,21.3-37.84,11.73-19.28-3v-3.72c-6.73-.44-11.14-4.85-11.58-11.58h-3.7c-8.33,20,5,66.88-11.58,76.92v3.24c6.55.51,11,5,11.58,11.6h3.7c.62-6.59,5-11.09,11.58-11.6v-3.24c-16.34-16,4.55-18.1,21.55-1.16,16.11,16.06,15.92,38.12-.69,22l-3.24,0c-.56,6.77-5.19,11.17-12.05,11.6v3.7c6.86.43,11.48,4.83,12.05,11.6l3.24,0c8.9-17.08,33.83,7.85,17.6,17.6v3.26c6.58.62,11.07,5,11.58,11.58h3.26c.51-6.55,5-11,11.58-11.58v-3.26c-15.89-9.47,8.39-35,17.61-17.6l3.23,0c.57-6.78,5.2-11.18,12.06-11.6V1720c-6.86-.43-11.49-4.83-12.06-11.6l-3.23,0c-16.56,15.76-17.93-5.27-.93-22,17.8-17.55,39.06-12.11,21.79,1.16v3.24c6.55.51,11,5,11.59,11.6l3.71,0c.62-6.58,5-11.07,11.58-11.58v-3.24c-16.09-9,8.27-34,17.6-17.62H2408c.51-6.54,5-11,11.58-11.58v-3.24a12.55,12.55,0,0,1-11.59-12h-3.24c-9.1,17.25-33.49-7.79-17.6-17.15v-3.71c-6.75-.43-11.16-4.84-11.58-11.58h-3.71c-.45,6.73-4.86,11.14-11.58,11.58v3.72c9.64,7.63,3.38,23.13-7.6,14.63-27.36-21.16,0-33.09,18.48-51.71,23.41-23.57,24.45-38.2,49.91-20.76,12.56,8.6-3.34,18.6-13.06,10.1h-3.25c-.51,6.55-5,11-11.58,11.58V1593a12.56,12.56,0,0,1,11.58,12H2408c9.08-17.29,33.47,7.76,17.62,17.14v3.72c6.74.44,11.14,4.84,11.58,11.58h3.24c.56-6.76,5.19-11.16,12-11.59v-3.71c-17.11-8.64,8.24-34.58,17.15-17.14h3.71c.42-6.84,4.81-11.47,11.58-12v-3.26c-6.74-.43-11.14-4.84-11.58-11.58l-3.71,0c-18.56,17.34-18.26-13.23,4-26.76,15-9.1,33.16-10,16.83,5.9v3.23c6.85.42,11.47,4.82,12,11.59h3.25c.44-6.74,4.85-11.16,11.59-11.59v-3.23c-16-9.27,8.4-35,17.6-17.62h3.25c.57-6.76,5.2-11.15,12.05-11.59v-3.69Z" transform="translate(-816 -816)"/></svg>